<svg width="454" height="116" viewBox="0 0 454 116" fill="none" xmlns="http://www.w3.org/2000/svg">
<path d="M13.7019 107.493C13.7019 106.784 13.5709 106.24 13.309 105.862C13.0307 105.483 12.6378 105.294 12.1303 105.294H12.0812C11.6065 105.294 11.23 105.476 10.9517 105.838C10.6734 106.201 10.5342 106.768 10.5342 107.54V111.04H13.7019V107.493ZM7.19472 108.155C7.19472 107.446 7.07194 106.91 6.82639 106.547C6.58083 106.169 6.20432 105.98 5.69684 105.98H5.64773C5.173 105.98 4.81285 106.153 4.5673 106.5C4.30537 106.847 4.17441 107.367 4.17441 108.061V111.04H7.19472V108.155ZM0.343776 115.508V107.02C0.343776 105.98 0.474737 105.089 0.736663 104.348C0.998592 103.608 1.38328 102.993 1.89076 102.504C2.23454 102.173 2.6356 101.913 3.09398 101.724C3.55235 101.535 4.07619 101.44 4.66552 101.44H4.71463C5.71322 101.44 6.52354 101.685 7.14561 102.173C7.75131 102.646 8.21786 103.253 8.54526 103.994C8.88904 102.985 9.38832 102.189 10.0431 101.606C10.6816 101.007 11.5819 100.707 12.7442 100.707H12.7933C14.283 100.707 15.4453 101.259 16.2802 102.362C17.1151 103.45 17.5325 104.987 17.5325 106.973V115.508H0.343776ZM0.343776 98.6068L0.343775 85.2954H4.39541V94.0672H6.99827V86.1229H10.7552V94.0672H13.4809V85.1772H17.5325V98.6068H0.343776ZM17.8763 74.8687C17.8763 76.0509 17.6553 77.1621 17.2133 78.2025C16.7713 79.2428 16.1574 80.1492 15.3716 80.9215C14.5695 81.6781 13.6282 82.285 12.5478 82.742C11.451 83.1834 10.2641 83.4041 8.98726 83.4041H8.93815C7.694 83.4041 6.53172 83.1834 5.45129 82.742C4.35448 82.3008 3.40501 81.6939 2.60287 80.9215C1.78435 80.1492 1.14591 79.2349 0.687553 78.1788C0.229183 77.107 0 75.9406 0 74.6796C0 73.8284 0.0900368 73.0561 0.27011 72.3625C0.433811 71.669 0.679357 71.0384 1.00677 70.471C1.3178 69.8879 1.69432 69.3677 2.13632 68.9105C2.57831 68.4376 3.06122 68.02 3.58508 67.6574L6.35984 71.1094C5.73776 71.5822 5.24665 72.1024 4.88651 72.6698C4.52636 73.2373 4.3463 73.923 4.3463 74.7268C4.3463 75.3101 4.46907 75.8461 4.71463 76.3346C4.94381 76.8075 5.26302 77.2174 5.67229 77.5641C6.08155 77.9109 6.56446 78.1868 7.12105 78.3916C7.67764 78.5807 8.26697 78.6753 8.88904 78.6753H8.93815C9.57658 78.6753 10.1823 78.5807 10.7552 78.3916C11.3118 78.1868 11.7947 77.9109 12.204 77.5641C12.6133 77.2174 12.9407 76.8075 13.1862 76.3346C13.4154 75.8461 13.53 75.3101 13.53 74.7268C13.53 74.3012 13.4809 73.9151 13.3827 73.5683C13.2844 73.2058 13.1453 72.8826 12.9652 72.5989C12.7688 72.2995 12.5478 72.0236 12.3022 71.7714C12.0403 71.5035 11.7538 71.2434 11.4428 70.9911L13.9965 67.5392C14.5532 67.9333 15.0688 68.3667 15.5435 68.8396C16.0182 69.2968 16.4275 69.8248 16.7713 70.4237C17.1151 71.007 17.3852 71.669 17.5816 72.4098C17.7781 73.1349 17.8763 73.9546 17.8763 74.8687ZM10.7552 55.8245L5.86873 57.6687L10.7552 59.5365V55.8245ZM0.220998 59.8439L0.220996 55.4225L17.5325 48.3767V53.2946L14.4631 54.5004V60.8842L17.5325 62.0664V66.8897L0.220998 59.8439ZM17.8517 39.3231C17.8517 40.5053 17.6963 41.5693 17.3852 42.515C17.0741 43.4608 16.5994 44.2647 15.961 44.9267C15.3061 45.5887 14.4877 46.1009 13.5054 46.4635C12.5068 46.8102 11.3364 46.9837 9.99403 46.9837H0.343773V42.3259H9.8958C11.1399 42.3259 12.0649 42.05 12.6706 41.4983C13.2599 40.9466 13.5545 40.2058 13.5545 39.2758C13.5545 38.3458 13.2681 37.605 12.6951 37.0533C12.1221 36.5016 11.23 36.2258 10.0186 36.2258H0.343773V31.568H9.87125C11.2627 31.568 12.4659 31.7572 13.4809 32.1355C14.4795 32.4979 15.3061 33.0181 15.961 33.6959C16.5994 34.358 17.0741 35.1697 17.3852 36.1312C17.6963 37.077 17.8517 38.1409 17.8517 39.3231ZM17.8272 22.3514C17.8272 23.833 17.5898 25.2438 17.1151 26.5836C16.6404 27.9077 15.9283 29.0819 14.9788 30.1065L11.8111 27.553C13.1862 25.898 13.8738 24.1089 13.8738 22.1859C13.8738 21.5712 13.7755 21.1061 13.5791 20.7909C13.3663 20.4599 13.0716 20.2944 12.6951 20.2944H12.646C12.4659 20.2944 12.3104 20.3337 12.1795 20.4126C12.0321 20.4914 11.893 20.6411 11.762 20.8619C11.631 21.0667 11.5083 21.3504 11.3937 21.713C11.2627 22.0597 11.1318 22.5169 11.0008 23.0844C10.788 23.967 10.5588 24.7867 10.3132 25.5433C10.0513 26.2999 9.72392 26.9619 9.33103 27.5294C8.92177 28.081 8.42248 28.5224 7.83316 28.8534C7.22745 29.1686 6.48261 29.3263 5.59862 29.3263H5.54951C4.74736 29.3263 4.0107 29.1844 3.33953 28.9007C2.66834 28.6012 2.08721 28.1756 1.5961 27.624C1.10499 27.0565 0.728468 26.3787 0.466548 25.5906C0.188257 24.8024 0.0491091 23.9119 0.0491091 22.9189C0.0491091 21.5002 0.245552 20.2392 0.638437 19.1359C1.01495 18.0166 1.57972 17.008 2.33276 16.1095L5.69684 18.4029C5.14025 19.1595 4.72281 19.9398 4.44452 20.7437C4.14985 21.5317 4.00252 22.2962 4.00252 23.0371C4.00252 23.5887 4.10892 24.0065 4.32174 24.2902C4.53454 24.5581 4.79647 24.6921 5.10751 24.6921H5.15662C5.35307 24.6921 5.52495 24.6527 5.67229 24.5739C5.81962 24.4793 5.95875 24.3295 6.08973 24.1247C6.20431 23.9039 6.32708 23.6124 6.45806 23.2499C6.57264 22.8716 6.69542 22.3987 6.82639 21.8313C7.03919 20.8855 7.29294 20.0343 7.5876 19.2777C7.86589 18.5053 8.20967 17.8511 8.61893 17.3153C9.02817 16.7793 9.52747 16.3696 10.1168 16.0858C10.6898 15.8021 11.3773 15.6603 12.1795 15.6603H12.2286C13.1126 15.6603 13.8983 15.8258 14.5859 16.1568C15.2734 16.472 15.8628 16.9212 16.3539 17.5045C16.8285 18.0876 17.1969 18.7891 17.4588 19.6088C17.7044 20.4283 17.8272 21.3426 17.8272 22.3514ZM0.343772 13.4296V0.118221H4.39541V8.89001H6.99827V0.945742H10.7552V8.89001H13.4809V0H17.5325V13.4296H0.343772Z" fill="#41E22E"/>
<path d="M28.8772 54.6544H46.556L60.9577 77.8165L75.3595 54.6544H93.0383V114.483H76.3943V80.1241L60.9577 103.543H60.6128L45.2624 80.295V114.483H28.8772V54.6544ZM139.276 90.8932L132.549 73.8849L125.737 90.8932H139.276ZM124.615 54.2271H140.742L166.441 114.483H148.503L144.105 103.799H120.821L116.509 114.483H98.9165L124.615 54.2271ZM187.045 69.1841H168.935V54.6544H221.885V69.1841H203.775V114.483H187.045V69.1841ZM243.976 69.1841H225.866V54.6544H278.816V69.1841H260.706V114.483H243.976V69.1841ZM286.16 54.6544H334.712V68.7568H302.717V77.8165H331.693V90.8932H302.717V100.38H335.143V114.483H286.16V54.6544ZM371.449 83.3719C374.323 83.3719 376.537 82.7453 378.089 81.4916C379.641 80.1813 380.417 78.4431 380.417 76.278V76.1071C380.417 73.714 379.612 71.9474 378.003 70.808C376.393 69.6115 374.179 69.0132 371.362 69.0132H360.41V83.3719H371.449ZM343.68 54.6544H372.225C376.882 54.6544 380.819 55.2244 384.039 56.3638C387.259 57.5032 389.874 59.0988 391.887 61.15C395.451 64.5688 397.234 69.2124 397.234 75.0815V75.2524C397.234 79.8677 396.113 83.6855 393.87 86.7052C391.628 89.7249 388.61 92.0326 384.815 93.6282L399.217 114.483H379.9L367.74 96.3632H367.568H360.41V114.483H343.68V54.6544ZM429.377 115.508C423.977 115.508 418.829 114.682 413.942 113.03C409.113 111.377 404.83 108.899 401.093 105.594L410.407 94.5684C416.443 99.3546 422.969 101.748 429.981 101.748C432.223 101.748 433.921 101.406 435.069 100.722C436.276 99.9812 436.88 98.9556 436.88 97.6452V97.4743C436.88 96.8477 436.74 96.306 436.449 95.8504C436.163 95.3376 435.619 94.8531 434.81 94.3974C434.067 93.9417 433.032 93.5144 431.706 93.1154C430.445 92.6597 428.774 92.2035 426.704 91.7479C423.486 91.007 420.495 90.2094 417.735 89.3548C414.977 88.4429 412.562 87.3035 410.493 85.936C408.48 84.5113 406.871 82.7737 405.663 80.7224C404.513 78.614 403.939 76.0216 403.939 72.9447V72.7738C403.939 69.9816 404.456 67.4176 405.491 65.0816C406.583 62.7456 408.135 60.7227 410.148 59.0133C412.218 57.3039 414.689 55.9936 417.563 55.0818C420.441 54.1133 423.686 53.6288 427.308 53.6288C432.482 53.6288 437.085 54.3125 441.106 55.68C445.191 56.9904 448.867 58.9562 452.144 61.5774L443.779 73.2866C441.019 71.3491 438.174 69.8962 435.242 68.9277C432.369 67.9021 429.582 67.3892 426.876 67.3892C424.866 67.3892 423.341 67.7594 422.306 68.5003C421.33 69.2413 420.84 70.1526 420.84 71.2354V71.4063C420.84 72.0901 420.985 72.6883 421.271 73.2011C421.616 73.714 422.166 74.1985 422.91 74.6541C423.718 75.0531 424.78 75.4805 426.1 75.9361C427.48 76.3352 429.205 76.7625 431.275 77.2182C434.724 77.9591 437.829 78.8421 440.588 79.8677C443.407 80.8362 445.795 82.0328 447.746 83.4574C449.703 84.8821 451.196 86.6197 452.23 88.671C453.265 90.6651 453.783 93.0582 453.783 95.8504V96.0213C453.783 99.0982 453.179 101.833 451.972 104.226C450.824 106.619 449.185 108.671 447.056 110.38C444.933 112.032 442.372 113.314 439.381 114.226C436.395 115.081 433.059 115.508 429.377 115.508Z" fill="#41E22E"/>
<mask id="path-3-inside-1_44_17" fill="white">
<path d="M41.0134 10.4265H28.8772V0.793204H64.3612V10.4265H52.225V40.4595H41.0134V10.4265ZM69.2826 0.793204H101.819V10.1431H80.3785V16.1497H99.7965V24.8197H80.3785V31.1096H102.108V40.4595H69.2826V0.793204ZM127.305 41.2528C124.415 41.2528 121.699 40.7428 119.156 39.7229C116.614 38.7029 114.398 37.2862 112.51 35.4729C110.661 33.6217 109.178 31.4496 108.06 28.9563C106.981 26.4251 106.442 23.6863 106.442 20.7397V20.6264C106.442 17.7552 106.981 15.0731 108.06 12.5798C109.139 10.0487 110.622 7.8576 112.51 6.00649C114.398 4.11763 116.633 2.64431 119.214 1.58653C121.834 0.52875 124.685 -0.00012207 127.767 -0.00012207C129.848 -0.00012207 131.735 0.207664 133.431 0.623204C135.126 1.00099 136.667 1.56765 138.054 2.32319C139.479 3.04097 140.751 3.90984 141.868 4.92983C143.024 5.94982 144.045 7.06427 144.931 8.27314L136.494 14.6764C135.338 13.2409 134.067 12.1076 132.68 11.2764C131.293 10.4453 129.617 10.0298 127.652 10.0298C126.226 10.0298 124.916 10.3131 123.722 10.8798C122.566 11.4087 121.564 12.1453 120.717 13.0898C119.869 14.0342 119.195 15.1486 118.694 16.4331C118.232 17.7176 118.001 19.0776 118.001 20.513V20.6264C118.001 22.0997 118.232 23.4976 118.694 24.8197C119.195 26.1042 119.869 27.2184 120.717 28.163C121.564 29.1075 122.566 29.8629 123.722 30.4296C124.916 30.9584 126.226 31.2229 127.652 31.2229C128.692 31.2229 129.636 31.1096 130.484 30.8829C131.37 30.6563 132.159 30.335 132.853 29.9196C133.585 29.4663 134.259 28.9563 134.876 28.3896C135.531 27.7851 136.166 27.1242 136.783 26.4063L145.22 32.2996C144.257 33.5841 143.198 34.7741 142.042 35.8696C140.924 36.965 139.634 37.9095 138.17 38.7029C136.744 39.4962 135.126 40.1195 133.315 40.5728C131.543 41.0262 129.539 41.2528 127.305 41.2528ZM150.044 0.793204H161.256V15.6397H175.646V0.793204H186.857V40.4595H175.646V25.3863H161.256V40.4595H150.044V0.793204ZM194.009 0.793204H204.469L221.113 21.7597V0.793204H232.209V40.4595H222.384L205.105 18.6997V40.4595H194.009V0.793204ZM259.842 31.3363C261.383 31.3363 262.79 31.0529 264.061 30.4863C265.333 29.9196 266.411 29.1642 267.298 28.2196C268.184 27.2375 268.877 26.1042 269.378 24.8197C269.879 23.5351 270.129 22.1751 270.129 20.7397V20.6264C270.129 19.1909 269.879 17.8309 269.378 16.5464C268.877 15.262 268.164 14.1286 267.24 13.1464C266.315 12.1642 265.217 11.3898 263.946 10.8231C262.674 10.2187 261.268 9.91646 259.727 9.91646C258.186 9.91646 256.779 10.1998 255.508 10.7664C254.275 11.3331 253.196 12.1076 252.272 13.0898C251.385 14.0342 250.692 15.1486 250.191 16.4331C249.729 17.7176 249.498 19.0776 249.498 20.513V20.6264C249.498 22.0618 249.748 23.4218 250.249 24.7063C250.75 25.9909 251.443 27.1242 252.329 28.1063C253.254 29.0884 254.352 29.8817 255.624 30.4863C256.895 31.0529 258.301 31.3363 259.842 31.3363ZM259.727 41.2528C256.606 41.2528 253.717 40.7241 251.058 39.6662C248.4 38.5708 246.107 37.0974 244.181 35.2462C242.254 33.395 240.733 31.2229 239.615 28.7296C238.536 26.2363 237.997 23.573 237.997 20.7397V20.6264C237.997 17.7931 238.536 15.1297 239.615 12.6364C240.733 10.1053 242.274 7.91426 244.239 6.06316C246.204 4.1743 248.515 2.70098 251.174 1.6432C253.832 0.547662 256.722 -0.00012207 259.842 -0.00012207C262.963 -0.00012207 265.853 0.547662 268.511 1.6432C271.17 2.70098 273.462 4.15538 275.388 6.00649C277.315 7.8576 278.817 10.0298 279.896 12.5231C281.013 15.0164 281.572 17.6797 281.572 20.513V20.6264C281.572 23.4597 281.013 26.1417 279.896 28.673C278.817 31.1663 277.295 33.3575 275.331 35.2462C273.366 37.0974 271.054 38.5708 268.396 39.6662C265.737 40.7241 262.848 41.2528 259.727 41.2528ZM287.412 0.793204H298.623V30.8263H318.215V40.4595H287.412V0.793204ZM343.484 31.3363C345.023 31.3363 346.431 31.0529 347.703 30.4863C348.974 29.9196 350.05 29.1642 350.939 28.2196C351.824 27.2375 352.517 26.1042 353.019 24.8197C353.518 23.5351 353.771 22.1751 353.771 20.7397V20.6264C353.771 19.1909 353.518 17.8309 353.019 16.5464C352.517 15.262 351.806 14.1286 350.881 13.1464C349.956 12.1642 348.858 11.3898 347.587 10.8231C346.316 10.2187 344.907 9.91646 343.368 9.91646C341.826 9.91646 340.421 10.1998 339.149 10.7664C337.914 11.3331 336.838 12.1076 335.913 13.0898C335.025 14.0342 334.331 15.1486 333.833 16.4331C333.37 17.7176 333.139 19.0776 333.139 20.513V20.6264C333.139 22.0618 333.388 23.4218 333.887 24.7063C334.389 25.9909 335.082 27.1242 335.971 28.1063C336.896 29.0884 337.994 29.8817 339.265 30.4863C340.536 31.0529 341.941 31.3363 343.484 31.3363ZM343.368 41.2528C340.247 41.2528 337.358 40.7241 334.696 39.6662C332.041 38.5708 329.747 37.0974 327.822 35.2462C325.893 33.395 324.373 31.2229 323.253 28.7296C322.177 26.2363 321.639 23.573 321.639 20.7397V20.6264C321.639 17.7931 322.177 15.1297 323.253 12.6364C324.373 10.1053 325.915 7.91426 327.88 6.06316C329.845 4.1743 332.157 2.70098 334.815 1.6432C337.474 0.547662 340.363 -0.00012207 343.484 -0.00012207C346.605 -0.00012207 349.494 0.547662 352.153 1.6432C354.811 2.70098 357.101 4.15538 359.03 6.00649C360.955 7.8576 362.458 10.0298 363.538 12.5231C364.654 15.0164 365.213 17.6797 365.213 20.513V20.6264C365.213 23.4597 364.654 26.1417 363.538 28.673C362.458 31.1663 360.937 33.3575 358.972 35.2462C357.007 37.0974 354.695 38.5708 352.037 39.6662C349.379 40.7241 346.489 41.2528 343.368 41.2528ZM391.682 41.2528C388.525 41.2528 385.596 40.7616 382.898 39.7795C380.239 38.7595 377.928 37.3429 375.963 35.5296C373.998 33.7162 372.459 31.5629 371.339 29.0696C370.223 26.5384 369.663 23.7618 369.663 20.7397V20.6264C369.663 17.7552 370.205 15.0731 371.282 12.5798C372.401 10.0487 373.922 7.8576 375.847 6.00649C377.776 4.11763 380.066 2.64431 382.724 1.58653C385.422 0.52875 388.33 -0.00012207 391.451 -0.00012207C395.034 -0.00012207 398.119 0.509872 400.697 1.52986C403.32 2.54985 405.707 3.96651 407.864 5.77983L401.275 13.5431C399.813 12.3342 398.31 11.4087 396.768 10.7664C395.265 10.1242 393.513 9.80312 391.509 9.80312C390.046 9.80312 388.677 10.0865 387.405 10.6531C386.174 11.2198 385.094 11.9942 384.169 12.9764C383.244 13.9586 382.515 15.1109 381.973 16.4331C381.435 17.7552 381.164 19.1718 381.164 20.683V20.7964C381.164 22.383 381.435 23.8563 381.973 25.2163C382.515 26.5763 383.266 27.7475 384.227 28.7296C385.231 29.6742 386.387 30.4296 387.694 30.9963C389.045 31.525 390.526 31.7896 392.144 31.7896C394.767 31.7896 396.923 31.2417 398.617 30.1463V25.3296H390.642V17.2831H409.251V35.1329C407.094 36.8708 404.552 38.325 401.622 39.4962C398.697 40.6674 395.381 41.2528 391.682 41.2528ZM427.141 25.613L411.768 0.793204H424.54L432.862 15.2431L441.242 0.793204H453.783L438.41 25.443V40.4595H427.141V25.613Z"/>
</mask>
<path d="M41.0134 10.4265H28.8772V0.793204H64.3612V10.4265H52.225V40.4595H41.0134V10.4265ZM69.2826 0.793204H101.819V10.1431H80.3785V16.1497H99.7965V24.8197H80.3785V31.1096H102.108V40.4595H69.2826V0.793204ZM127.305 41.2528C124.415 41.2528 121.699 40.7428 119.156 39.7229C116.614 38.7029 114.398 37.2862 112.51 35.4729C110.661 33.6217 109.178 31.4496 108.06 28.9563C106.981 26.4251 106.442 23.6863 106.442 20.7397V20.6264C106.442 17.7552 106.981 15.0731 108.06 12.5798C109.139 10.0487 110.622 7.8576 112.51 6.00649C114.398 4.11763 116.633 2.64431 119.214 1.58653C121.834 0.52875 124.685 -0.00012207 127.767 -0.00012207C129.848 -0.00012207 131.735 0.207664 133.431 0.623204C135.126 1.00099 136.667 1.56765 138.054 2.32319C139.479 3.04097 140.751 3.90984 141.868 4.92983C143.024 5.94982 144.045 7.06427 144.931 8.27314L136.494 14.6764C135.338 13.2409 134.067 12.1076 132.68 11.2764C131.293 10.4453 129.617 10.0298 127.652 10.0298C126.226 10.0298 124.916 10.3131 123.722 10.8798C122.566 11.4087 121.564 12.1453 120.717 13.0898C119.869 14.0342 119.195 15.1486 118.694 16.4331C118.232 17.7176 118.001 19.0776 118.001 20.513V20.6264C118.001 22.0997 118.232 23.4976 118.694 24.8197C119.195 26.1042 119.869 27.2184 120.717 28.163C121.564 29.1075 122.566 29.8629 123.722 30.4296C124.916 30.9584 126.226 31.2229 127.652 31.2229C128.692 31.2229 129.636 31.1096 130.484 30.8829C131.37 30.6563 132.159 30.335 132.853 29.9196C133.585 29.4663 134.259 28.9563 134.876 28.3896C135.531 27.7851 136.166 27.1242 136.783 26.4063L145.22 32.2996C144.257 33.5841 143.198 34.7741 142.042 35.8696C140.924 36.965 139.634 37.9095 138.17 38.7029C136.744 39.4962 135.126 40.1195 133.315 40.5728C131.543 41.0262 129.539 41.2528 127.305 41.2528ZM150.044 0.793204H161.256V15.6397H175.646V0.793204H186.857V40.4595H175.646V25.3863H161.256V40.4595H150.044V0.793204ZM194.009 0.793204H204.469L221.113 21.7597V0.793204H232.209V40.4595H222.384L205.105 18.6997V40.4595H194.009V0.793204ZM259.842 31.3363C261.383 31.3363 262.79 31.0529 264.061 30.4863C265.333 29.9196 266.411 29.1642 267.298 28.2196C268.184 27.2375 268.877 26.1042 269.378 24.8197C269.879 23.5351 270.129 22.1751 270.129 20.7397V20.6264C270.129 19.1909 269.879 17.8309 269.378 16.5464C268.877 15.262 268.164 14.1286 267.24 13.1464C266.315 12.1642 265.217 11.3898 263.946 10.8231C262.674 10.2187 261.268 9.91646 259.727 9.91646C258.186 9.91646 256.779 10.1998 255.508 10.7664C254.275 11.3331 253.196 12.1076 252.272 13.0898C251.385 14.0342 250.692 15.1486 250.191 16.4331C249.729 17.7176 249.498 19.0776 249.498 20.513V20.6264C249.498 22.0618 249.748 23.4218 250.249 24.7063C250.75 25.9909 251.443 27.1242 252.329 28.1063C253.254 29.0884 254.352 29.8817 255.624 30.4863C256.895 31.0529 258.301 31.3363 259.842 31.3363ZM259.727 41.2528C256.606 41.2528 253.717 40.7241 251.058 39.6662C248.4 38.5708 246.107 37.0974 244.181 35.2462C242.254 33.395 240.733 31.2229 239.615 28.7296C238.536 26.2363 237.997 23.573 237.997 20.7397V20.6264C237.997 17.7931 238.536 15.1297 239.615 12.6364C240.733 10.1053 242.274 7.91426 244.239 6.06316C246.204 4.1743 248.515 2.70098 251.174 1.6432C253.832 0.547662 256.722 -0.00012207 259.842 -0.00012207C262.963 -0.00012207 265.853 0.547662 268.511 1.6432C271.17 2.70098 273.462 4.15538 275.388 6.00649C277.315 7.8576 278.817 10.0298 279.896 12.5231C281.013 15.0164 281.572 17.6797 281.572 20.513V20.6264C281.572 23.4597 281.013 26.1417 279.896 28.673C278.817 31.1663 277.295 33.3575 275.331 35.2462C273.366 37.0974 271.054 38.5708 268.396 39.6662C265.737 40.7241 262.848 41.2528 259.727 41.2528ZM287.412 0.793204H298.623V30.8263H318.215V40.4595H287.412V0.793204ZM343.484 31.3363C345.023 31.3363 346.431 31.0529 347.703 30.4863C348.974 29.9196 350.05 29.1642 350.939 28.2196C351.824 27.2375 352.517 26.1042 353.019 24.8197C353.518 23.5351 353.771 22.1751 353.771 20.7397V20.6264C353.771 19.1909 353.518 17.8309 353.019 16.5464C352.517 15.262 351.806 14.1286 350.881 13.1464C349.956 12.1642 348.858 11.3898 347.587 10.8231C346.316 10.2187 344.907 9.91646 343.368 9.91646C341.826 9.91646 340.421 10.1998 339.149 10.7664C337.914 11.3331 336.838 12.1076 335.913 13.0898C335.025 14.0342 334.331 15.1486 333.833 16.4331C333.37 17.7176 333.139 19.0776 333.139 20.513V20.6264C333.139 22.0618 333.388 23.4218 333.887 24.7063C334.389 25.9909 335.082 27.1242 335.971 28.1063C336.896 29.0884 337.994 29.8817 339.265 30.4863C340.536 31.0529 341.941 31.3363 343.484 31.3363ZM343.368 41.2528C340.247 41.2528 337.358 40.7241 334.696 39.6662C332.041 38.5708 329.747 37.0974 327.822 35.2462C325.893 33.395 324.373 31.2229 323.253 28.7296C322.177 26.2363 321.639 23.573 321.639 20.7397V20.6264C321.639 17.7931 322.177 15.1297 323.253 12.6364C324.373 10.1053 325.915 7.91426 327.88 6.06316C329.845 4.1743 332.157 2.70098 334.815 1.6432C337.474 0.547662 340.363 -0.00012207 343.484 -0.00012207C346.605 -0.00012207 349.494 0.547662 352.153 1.6432C354.811 2.70098 357.101 4.15538 359.03 6.00649C360.955 7.8576 362.458 10.0298 363.538 12.5231C364.654 15.0164 365.213 17.6797 365.213 20.513V20.6264C365.213 23.4597 364.654 26.1417 363.538 28.673C362.458 31.1663 360.937 33.3575 358.972 35.2462C357.007 37.0974 354.695 38.5708 352.037 39.6662C349.379 40.7241 346.489 41.2528 343.368 41.2528ZM391.682 41.2528C388.525 41.2528 385.596 40.7616 382.898 39.7795C380.239 38.7595 377.928 37.3429 375.963 35.5296C373.998 33.7162 372.459 31.5629 371.339 29.0696C370.223 26.5384 369.663 23.7618 369.663 20.7397V20.6264C369.663 17.7552 370.205 15.0731 371.282 12.5798C372.401 10.0487 373.922 7.8576 375.847 6.00649C377.776 4.11763 380.066 2.64431 382.724 1.58653C385.422 0.52875 388.33 -0.00012207 391.451 -0.00012207C395.034 -0.00012207 398.119 0.509872 400.697 1.52986C403.32 2.54985 405.707 3.96651 407.864 5.77983L401.275 13.5431C399.813 12.3342 398.31 11.4087 396.768 10.7664C395.265 10.1242 393.513 9.80312 391.509 9.80312C390.046 9.80312 388.677 10.0865 387.405 10.6531C386.174 11.2198 385.094 11.9942 384.169 12.9764C383.244 13.9586 382.515 15.1109 381.973 16.4331C381.435 17.7552 381.164 19.1718 381.164 20.683V20.7964C381.164 22.383 381.435 23.8563 381.973 25.2163C382.515 26.5763 383.266 27.7475 384.227 28.7296C385.231 29.6742 386.387 30.4296 387.694 30.9963C389.045 31.525 390.526 31.7896 392.144 31.7896C394.767 31.7896 396.923 31.2417 398.617 30.1463V25.3296H390.642V17.2831H409.251V35.1329C407.094 36.8708 404.552 38.325 401.622 39.4962C398.697 40.6674 395.381 41.2528 391.682 41.2528ZM427.141 25.613L411.768 0.793204H424.54L432.862 15.2431L441.242 0.793204H453.783L438.41 25.443V40.4595H427.141V25.613Z" stroke="#41E22E" stroke-width="18" mask="url(#path-3-inside-1_44_17)"/>
</svg>
