<svg width="223" height="79" viewBox="0 0 223 79" fill="none" xmlns="http://www.w3.org/2000/svg">
<path fill-rule="evenodd" clip-rule="evenodd" d="M49.338 3.70653C44.396 -1.23551 36.3833 -1.23551 31.4413 3.70653L4.59618 30.5516C-0.345863 35.4937 -0.345864 43.5063 4.59618 48.4484L31.4413 75.2935C36.3833 80.2355 44.396 80.2355 49.338 75.2935L76.1831 48.4484C81.1252 43.5063 81.1252 35.4937 76.1831 30.5516L49.338 3.70653ZM29.4452 42.1086C29.4399 43.0324 29.4559 43.9616 29.552 44.8854C29.5684 45.0356 29.589 45.1858 29.6095 45.3354C29.629 45.478 29.6485 45.6204 29.6642 45.7612C29.5873 45.8124 29.5104 45.809 29.4335 45.8056C29.4288 45.8054 29.4241 45.8052 29.4194 45.805C29.4049 45.8044 29.3904 45.8039 29.3758 45.8039H26.081C26.0668 45.8039 26.0525 45.8033 26.0383 45.8027C26.0098 45.8015 25.9813 45.8003 25.9529 45.8039C25.814 45.8199 25.7713 45.7505 25.7659 45.617C25.7564 45.3425 25.7411 45.07 25.7258 44.7971C25.7155 44.6136 25.7051 44.4292 25.6965 44.2446C25.6931 44.1719 25.6941 44.0992 25.6952 44.0178C25.6959 43.9736 25.6965 43.9268 25.6965 43.8761C25.5626 43.9222 25.5139 44.0043 25.4683 44.0814C25.4557 44.1027 25.4434 44.1235 25.4295 44.1431C24.8902 44.9121 24.228 45.5209 23.3256 45.8413C22.7649 46.0442 22.1828 46.1189 21.5954 46.1029C20.741 46.0816 19.9026 45.9374 19.123 45.5529C18.0122 45.0082 17.3234 44.1485 17.1204 42.9149C17.1044 42.8188 17.0884 42.7227 17.003 42.6586V41.6974C17.0974 41.6479 17.1085 41.5567 17.1193 41.4686C17.1205 41.4584 17.1217 41.4483 17.1231 41.4383C17.1239 41.4321 17.1248 41.4259 17.1258 41.4197C17.318 40.293 17.9481 39.4706 18.9254 38.9099C19.6943 38.4667 20.5381 38.2371 21.4085 38.1089C22.6687 37.922 23.9343 37.906 25.1999 38.0929C25.4562 38.1303 25.4776 38.1142 25.4509 37.8526C25.3761 37.1263 25.045 36.5817 24.3669 36.2719C24.0465 36.1224 23.7047 36.0316 23.3523 36.0049C21.9638 35.9035 20.6021 36.0423 19.3045 36.5817C19.1972 36.6281 19.093 36.6776 18.9894 36.7269C18.9024 36.7683 18.8155 36.8097 18.7278 36.8487C18.652 36.8066 18.6592 36.7446 18.6656 36.6889C18.6674 36.6739 18.6691 36.6593 18.6691 36.6457L18.6674 36.585C18.6466 35.8152 18.6259 35.0502 18.6103 34.2801C18.605 34.0098 18.6102 34.0078 18.8504 33.9138L18.856 33.9116C19.9079 33.5058 21.0026 33.2815 22.1241 33.1854C22.9411 33.116 23.7581 33.0893 24.5805 33.1801C25.531 33.2869 26.4441 33.5111 27.2772 34.0078C28.468 34.718 29.1195 35.7807 29.3598 37.121C29.4292 37.4895 29.4452 37.8633 29.4452 38.2371V42.1086ZM21.1041 42.2581C21.2643 42.7654 21.6488 43.0431 22.1401 43.1606C24.1479 43.6519 25.3975 41.9858 25.4616 40.4745C25.4669 40.3571 25.4295 40.3037 25.3014 40.2983C25.0509 40.2877 24.8018 40.2757 24.5527 40.2637L24.5511 40.2636C24.3014 40.2516 24.0518 40.2396 23.8008 40.2289C23.4804 40.2129 23.16 40.2503 22.845 40.293C22.4177 40.3464 22.0066 40.4585 21.6488 40.7095C21.1468 41.0566 20.9225 41.6867 21.1041 42.2581ZM40.9957 36.9074C40.8462 36.8327 40.7074 36.7632 40.5578 36.6992C39.5966 36.2719 38.5927 36.1331 37.5621 36.3734C36.2538 36.6831 35.3673 37.7084 35.1858 39.0381C35.095 39.6949 35.1163 40.341 35.3887 40.9498C35.9013 42.0979 36.8305 42.7174 38.0427 42.9149C39.0573 43.0751 40.0398 42.9096 40.9904 42.5411C41.0346 42.5239 41.0789 42.5056 41.1221 42.4877C41.1727 42.4667 41.222 42.4463 41.2681 42.429C41.3335 42.4465 41.3348 42.4817 41.336 42.5144C41.3361 42.5191 41.3363 42.5238 41.3367 42.5283C41.3369 42.5308 41.3371 42.5333 41.3375 42.5358C41.3463 42.8426 41.3545 43.1488 41.3628 43.4548C41.3794 44.0756 41.3961 44.6956 41.4176 45.318C41.4229 45.4995 41.3642 45.5796 41.188 45.633C40.5205 45.8306 39.8423 45.9588 39.1534 46.0389C37.8451 46.1884 36.5528 46.1083 35.2926 45.7291C33.8614 45.2966 32.6599 44.5276 31.7948 43.2887C31.1968 42.429 30.8817 41.4678 30.7642 40.4318C30.6521 39.3959 30.7429 38.3866 31.0739 37.404C31.672 35.6525 32.8842 34.467 34.577 33.7675C35.8693 33.2335 37.2257 33.0679 38.6194 33.1641C39.4578 33.2228 40.2695 33.3723 41.0438 33.6981C41.3383 33.822 41.3378 33.8261 41.3085 34.1115L41.3054 34.1413C41.2253 34.9156 41.1506 35.6899 41.0758 36.4642C41.074 36.4881 41.0726 36.5124 41.0712 36.5369C41.0646 36.6547 41.0576 36.7792 40.9957 36.9074ZM46.945 35.5354C46.9225 35.5854 46.8965 35.6432 46.7896 35.6525V33.7301C46.7896 33.4364 46.7896 33.431 46.4959 33.431H43.2011C42.9021 33.431 42.8968 33.431 42.8968 33.7247V45.5369C42.8968 45.8092 42.9021 45.8146 43.1798 45.8146H46.8911C47.1687 45.8146 47.1688 45.8092 47.1741 45.5372L47.1741 40.4799C47.1741 40.01 47.2115 39.5454 47.297 39.0808C47.3984 38.5094 47.5746 37.9647 47.9271 37.4895C48.4611 36.7739 49.3262 36.5923 50.0417 36.7472C50.6185 36.87 50.9442 37.2865 51.1364 37.8152C51.302 38.2691 51.3394 38.7497 51.3394 39.2303V45.4087C51.3394 45.4336 51.34 45.4586 51.3405 45.4835C51.3417 45.5333 51.3429 45.5832 51.3394 45.633C51.3287 45.7772 51.4034 45.8199 51.5316 45.8092C51.5672 45.8057 51.6028 45.8069 51.6384 45.808C51.6562 45.8086 51.674 45.8092 51.6918 45.8092H55.4672C55.574 45.8146 55.6221 45.7612 55.6167 45.6544C55.6132 45.6045 55.6143 45.5547 55.6155 45.5048C55.6161 45.4799 55.6167 45.455 55.6167 45.4301C55.6167 44.9066 55.6173 44.3836 55.6179 43.8609C55.6191 42.816 55.6203 41.772 55.6167 40.7255C55.6167 40.2663 55.6274 39.807 55.6915 39.3531C55.7662 38.8084 55.8944 38.2851 56.1614 37.7992C56.4177 37.3399 56.7702 36.9768 57.2881 36.8166C58.4576 36.4588 59.3601 36.8593 59.6591 38.0929C59.7392 38.4293 59.7766 38.7657 59.7766 39.1075V45.6704C59.7766 45.7558 59.8086 45.8092 59.9048 45.8092H63.7122C63.8973 45.8092 63.9829 45.8145 64.0221 45.7744C64.0621 45.7335 64.054 45.6455 64.054 45.4568C64.054 44.7481 64.0534 44.0401 64.0528 43.3322C64.0516 41.9171 64.0504 40.5028 64.054 39.0861C64.054 38.5094 64.0379 37.938 64.0059 37.3613C63.9792 36.8166 63.8938 36.2773 63.7442 35.754C63.3544 34.3655 62.452 33.5272 61.0368 33.2548C60.2999 33.116 59.5577 33.0786 58.8101 33.1907C57.7153 33.3563 56.7541 33.7942 55.9692 34.6005C55.7721 34.8016 55.6054 35.0269 55.4392 35.2513C55.3847 35.3249 55.3303 35.3984 55.275 35.4709C55.2037 35.4164 55.1719 35.3455 55.1409 35.2761C55.1324 35.2571 55.1239 35.2383 55.1148 35.22C54.6662 34.3228 53.9666 33.7194 53.0268 33.3937C52.0603 33.0572 51.0777 33.0519 50.0898 33.2548C48.7174 33.5378 47.6334 34.2481 46.9552 35.5137C46.9517 35.5206 46.9484 35.5279 46.945 35.5354Z" fill="#41E22E"/>
<path d="M86.5005 26.1007L89.7402 17.2423H91.5625L94.8021 26.1007H93.0811L92.3724 24.0506H88.9176L88.1963 26.1007H86.5005ZM89.3605 22.7852H91.9295L90.6387 19.1026L89.3605 22.7852Z" fill="#41E22E"/>
<path d="M98.4995 26.2526C97.9427 26.2526 97.4534 26.164 97.0316 25.9868C96.6097 25.8012 96.2723 25.5481 96.0192 25.2275C95.7661 24.907 95.6142 24.5357 95.5636 24.1139H97.1961C97.2467 24.3586 97.3817 24.5695 97.601 24.7467C97.8288 24.9154 98.1199 24.9998 98.4742 24.9998C98.8286 24.9998 99.0859 24.928 99.2462 24.7846C99.4149 24.6412 99.4993 24.4767 99.4993 24.2911C99.4993 24.0211 99.3811 23.8397 99.1449 23.7469C98.9087 23.6457 98.5797 23.5487 98.1578 23.4559C97.8879 23.3968 97.6137 23.3251 97.3353 23.2407C97.0569 23.1564 96.7996 23.0509 96.5633 22.9244C96.3355 22.7894 96.1499 22.6206 96.0065 22.4182C95.8631 22.2072 95.7914 21.9499 95.7914 21.6462C95.7914 21.0894 96.0107 20.6212 96.4494 20.2415C96.8966 19.8619 97.5209 19.672 98.3224 19.672C99.0648 19.672 99.6553 19.845 100.094 20.1909C100.541 20.5368 100.807 21.0135 100.891 21.6209H99.3601C99.2673 21.1569 98.9171 20.9249 98.3097 20.9249C98.006 20.9249 97.7698 20.9839 97.601 21.102C97.4407 21.2202 97.3606 21.3678 97.3606 21.545C97.3606 21.7306 97.4829 21.8782 97.7276 21.9879C97.9722 22.0976 98.297 22.1988 98.702 22.2916C99.1407 22.3928 99.5415 22.5067 99.9042 22.6333C100.275 22.7514 100.571 22.9328 100.79 23.1775C101.009 23.4137 101.119 23.7554 101.119 24.2025C101.128 24.5906 101.026 24.9407 100.815 25.2529C100.604 25.565 100.301 25.8097 99.9042 25.9868C99.5077 26.164 99.0395 26.2526 98.4995 26.2526Z" fill="#41E22E"/>
<path d="M105.148 26.2526C104.591 26.2526 104.102 26.164 103.68 25.9868C103.258 25.8012 102.921 25.5481 102.668 25.2275C102.415 24.907 102.263 24.5357 102.212 24.1139H103.845C103.895 24.3586 104.03 24.5695 104.25 24.7467C104.478 24.9154 104.769 24.9998 105.123 24.9998C105.477 24.9998 105.735 24.928 105.895 24.7846C106.064 24.6412 106.148 24.4767 106.148 24.2911C106.148 24.0211 106.03 23.8397 105.794 23.7469C105.557 23.6457 105.228 23.5487 104.807 23.4559C104.537 23.3968 104.262 23.3251 103.984 23.2407C103.706 23.1564 103.448 23.0509 103.212 22.9244C102.984 22.7894 102.799 22.6206 102.655 22.4182C102.512 22.2072 102.44 21.9499 102.44 21.6462C102.44 21.0894 102.659 20.6212 103.098 20.2415C103.545 19.8619 104.17 19.672 104.971 19.672C105.714 19.672 106.304 19.845 106.743 20.1909C107.19 20.5368 107.456 21.0135 107.54 21.6209H106.009C105.916 21.1569 105.566 20.9249 104.958 20.9249C104.655 20.9249 104.419 20.9839 104.25 21.102C104.09 21.2202 104.009 21.3678 104.009 21.545C104.009 21.7306 104.132 21.8782 104.376 21.9879C104.621 22.0976 104.946 22.1988 105.351 22.2916C105.789 22.3928 106.19 22.5067 106.553 22.6333C106.924 22.7514 107.219 22.9328 107.439 23.1775C107.658 23.4137 107.768 23.7554 107.768 24.2025C107.776 24.5906 107.675 24.9407 107.464 25.2529C107.253 25.565 106.95 25.8097 106.553 25.9868C106.156 26.164 105.688 26.2526 105.148 26.2526Z" fill="#41E22E"/>
<path d="M112.215 26.2526C111.607 26.2526 111.059 26.1134 110.57 25.835C110.089 25.5566 109.705 25.1727 109.418 24.6834C109.14 24.1856 109 23.6119 109 22.9623C109 22.3127 109.144 21.7432 109.431 21.2539C109.717 20.7561 110.101 20.3681 110.582 20.0897C111.072 19.8112 111.62 19.672 112.227 19.672C112.826 19.672 113.366 19.8112 113.847 20.0897C114.336 20.3681 114.72 20.7561 114.999 21.2539C115.286 21.7432 115.429 22.3127 115.429 22.9623C115.429 23.6119 115.286 24.1856 114.999 24.6834C114.72 25.1727 114.336 25.5566 113.847 25.835C113.358 26.1134 112.814 26.2526 112.215 26.2526ZM112.215 24.8479C112.636 24.8479 113.003 24.6918 113.316 24.3797C113.628 24.0591 113.784 23.5866 113.784 22.9623C113.784 22.338 113.628 21.8698 113.316 21.5576C113.003 21.237 112.641 21.0767 112.227 21.0767C111.797 21.0767 111.426 21.237 111.114 21.5576C110.81 21.8698 110.658 22.338 110.658 22.9623C110.658 23.5866 110.81 24.0591 111.114 24.3797C111.426 24.6918 111.793 24.8479 112.215 24.8479Z" fill="#41E22E"/>
<path d="M119.952 26.2526C119.311 26.2526 118.746 26.1134 118.257 25.835C117.767 25.5566 117.379 25.1685 117.092 24.6707C116.814 24.173 116.675 23.6035 116.675 22.9623C116.675 22.3211 116.814 21.7517 117.092 21.2539C117.379 20.7561 117.767 20.3681 118.257 20.0897C118.746 19.8112 119.311 19.672 119.952 19.672C120.754 19.672 121.429 19.883 121.977 20.3048C122.526 20.7182 122.876 21.2919 123.028 22.0259H121.319C121.235 21.7221 121.066 21.4859 120.813 21.3172C120.568 21.14 120.277 21.0514 119.94 21.0514C119.493 21.0514 119.113 21.2202 118.801 21.5576C118.489 21.8951 118.333 22.3633 118.333 22.9623C118.333 23.5613 118.489 24.0296 118.801 24.367C119.113 24.7045 119.493 24.8732 119.94 24.8732C120.277 24.8732 120.568 24.7888 120.813 24.6201C121.066 24.4514 121.235 24.2109 121.319 23.8988H123.028C122.876 24.6075 122.526 25.1769 121.977 25.6072C121.429 26.0375 120.754 26.2526 119.952 26.2526Z" fill="#41E22E"/>
<path d="M125.339 18.8495C125.043 18.8495 124.799 18.7609 124.605 18.5837C124.419 18.4066 124.326 18.183 124.326 17.913C124.326 17.643 124.419 17.4237 124.605 17.255C124.799 17.0778 125.043 16.9892 125.339 16.9892C125.634 16.9892 125.874 17.0778 126.06 17.255C126.254 17.4237 126.351 17.643 126.351 17.913C126.351 18.183 126.254 18.4066 126.06 18.5837C125.874 18.7609 125.634 18.8495 125.339 18.8495ZM124.529 26.1007V19.8239H126.148V26.1007H124.529Z" fill="#41E22E"/>
<path d="M130.003 26.2526C129.463 26.2526 129.02 26.1682 128.674 25.9995C128.328 25.8223 128.071 25.5903 127.902 25.3035C127.734 25.0166 127.649 24.7003 127.649 24.3544C127.649 23.7722 127.877 23.2998 128.333 22.937C128.788 22.5742 129.472 22.3928 130.383 22.3928H131.977V22.241C131.977 21.8107 131.855 21.4944 131.61 21.2919C131.366 21.0894 131.062 20.9882 130.699 20.9882C130.37 20.9882 130.083 21.0683 129.839 21.2286C129.594 21.3805 129.442 21.6082 129.383 21.912H127.801C127.843 21.4564 127.995 21.0599 128.257 20.7224C128.527 20.3849 128.873 20.1276 129.294 19.9505C129.716 19.7648 130.189 19.672 130.712 19.672C131.606 19.672 132.311 19.8956 132.825 20.3428C133.34 20.7899 133.597 21.4226 133.597 22.241V26.1007H132.218L132.066 25.0883C131.88 25.4258 131.619 25.7042 131.281 25.9236C130.952 26.1429 130.526 26.2526 130.003 26.2526ZM130.37 24.9871C130.834 24.9871 131.193 24.8352 131.446 24.5315C131.707 24.2278 131.872 23.8524 131.939 23.4052H130.56C130.13 23.4052 129.822 23.4854 129.636 23.6457C129.451 23.7975 129.358 23.9874 129.358 24.2152C129.358 24.4598 129.451 24.6496 129.636 24.7846C129.822 24.9196 130.066 24.9871 130.37 24.9871Z" fill="#41E22E"/>
<path d="M137.853 26.1007C137.195 26.1007 136.668 25.9404 136.271 25.6198C135.875 25.2993 135.676 24.7298 135.676 23.9114V21.178H134.601V19.8239H135.676L135.866 18.1408H137.296V19.8239H138.992V21.178H137.296V23.9241C137.296 24.2278 137.36 24.4387 137.486 24.5568C137.621 24.6665 137.849 24.7213 138.169 24.7213H138.954V26.1007H137.853Z" fill="#41E22E"/>
<path d="M141.256 18.8495C140.961 18.8495 140.716 18.7609 140.522 18.5837C140.336 18.4066 140.244 18.183 140.244 17.913C140.244 17.643 140.336 17.4237 140.522 17.255C140.716 17.0778 140.961 16.9892 141.256 16.9892C141.551 16.9892 141.792 17.0778 141.977 17.255C142.171 17.4237 142.268 17.643 142.268 17.913C142.268 18.183 142.171 18.4066 141.977 18.5837C141.792 18.7609 141.551 18.8495 141.256 18.8495ZM140.446 26.1007V19.8239H142.066V26.1007H140.446Z" fill="#41E22E"/>
<path d="M146.768 26.2526C146.161 26.2526 145.613 26.1134 145.123 25.835C144.642 25.5566 144.259 25.1727 143.972 24.6834C143.693 24.1856 143.554 23.6119 143.554 22.9623C143.554 22.3127 143.698 21.7432 143.984 21.2539C144.271 20.7561 144.655 20.3681 145.136 20.0897C145.625 19.8112 146.174 19.672 146.781 19.672C147.38 19.672 147.92 19.8112 148.401 20.0897C148.89 20.3681 149.274 20.7561 149.553 21.2539C149.839 21.7432 149.983 22.3127 149.983 22.9623C149.983 23.6119 149.839 24.1856 149.553 24.6834C149.274 25.1727 148.89 25.5566 148.401 25.835C147.912 26.1134 147.367 26.2526 146.768 26.2526ZM146.768 24.8479C147.19 24.8479 147.557 24.6918 147.869 24.3797C148.182 24.0591 148.338 23.5866 148.338 22.9623C148.338 22.338 148.182 21.8698 147.869 21.5576C147.557 21.237 147.195 21.0767 146.781 21.0767C146.351 21.0767 145.98 21.237 145.668 21.5576C145.364 21.8698 145.212 22.338 145.212 22.9623C145.212 23.5866 145.364 24.0591 145.668 24.3797C145.98 24.6918 146.347 24.8479 146.768 24.8479Z" fill="#41E22E"/>
<path d="M151.431 26.1007V19.8239H152.861L152.988 20.8869C153.182 20.5157 153.46 20.2204 153.823 20.0011C154.194 19.7817 154.629 19.672 155.126 19.672C155.903 19.672 156.506 19.9167 156.936 20.406C157.366 20.8954 157.581 21.6125 157.581 22.5574V26.1007H155.962V22.7092C155.962 22.1693 155.852 21.7559 155.633 21.469C155.413 21.1822 155.072 21.0388 154.608 21.0388C154.152 21.0388 153.777 21.1991 153.481 21.5197C153.194 21.8403 153.051 22.2874 153.051 22.8611V26.1007H151.431Z" fill="#41E22E"/>
<path d="M162.437 26.1007V21.178H161.576V19.8239H162.437V19.0899C162.437 18.3306 162.627 17.7907 163.006 17.4701C163.394 17.1495 163.917 16.9892 164.576 16.9892H165.272V18.3686H164.829C164.55 18.3686 164.352 18.4234 164.234 18.5331C164.116 18.6428 164.057 18.8284 164.057 19.0899V19.8239H165.411V21.178H164.057V26.1007H162.437Z" fill="#41E22E"/>
<path d="M169.458 26.2526C168.851 26.2526 168.303 26.1134 167.813 25.835C167.332 25.5566 166.948 25.1727 166.662 24.6834C166.383 24.1856 166.244 23.6119 166.244 22.9623C166.244 22.3127 166.387 21.7432 166.674 21.2539C166.961 20.7561 167.345 20.3681 167.826 20.0897C168.315 19.8112 168.864 19.672 169.471 19.672C170.07 19.672 170.61 19.8112 171.091 20.0897C171.58 20.3681 171.964 20.7561 172.242 21.2539C172.529 21.7432 172.673 22.3127 172.673 22.9623C172.673 23.6119 172.529 24.1856 172.242 24.6834C171.964 25.1727 171.58 25.5566 171.091 25.835C170.602 26.1134 170.057 26.2526 169.458 26.2526ZM169.458 24.8479C169.88 24.8479 170.247 24.6918 170.559 24.3797C170.871 24.0591 171.028 23.5866 171.028 22.9623C171.028 22.338 170.871 21.8698 170.559 21.5576C170.247 21.237 169.884 21.0767 169.471 21.0767C169.041 21.0767 168.669 21.237 168.357 21.5576C168.054 21.8698 167.902 22.338 167.902 22.9623C167.902 23.5866 168.054 24.0591 168.357 24.3797C168.669 24.6918 169.036 24.8479 169.458 24.8479Z" fill="#41E22E"/>
<path d="M174.121 26.1007V19.8239H175.564L175.715 21.0008C175.943 20.5959 176.251 20.2753 176.639 20.039C177.036 19.7944 177.5 19.672 178.031 19.672V21.3805H177.576C177.221 21.3805 176.905 21.4353 176.627 21.545C176.348 21.6546 176.129 21.8445 175.969 22.1144C175.817 22.3844 175.741 22.7598 175.741 23.2407V26.1007H174.121Z" fill="#41E22E"/>
<path d="M91.0816 42.8622C90.1873 42.8622 89.4196 42.6723 88.7784 42.2927C88.1372 41.9046 87.6437 41.3689 87.2978 40.6855C86.9519 39.9937 86.7789 39.1964 86.7789 38.2937C86.7789 37.391 86.9519 36.5938 87.2978 35.902C87.6437 35.2102 88.1372 34.6702 88.7784 34.2821C89.4196 33.894 90.1873 33.7 91.0816 33.7C92.1446 33.7 93.0136 33.9658 93.6885 34.4973C94.3719 35.0203 94.7979 35.7585 94.9666 36.7119H93.1823C93.0726 36.231 92.8364 35.8556 92.4736 35.5856C92.1193 35.3072 91.6468 35.168 91.0563 35.168C90.2379 35.168 89.5967 35.4464 89.1327 36.0032C88.6687 36.56 88.4367 37.3235 88.4367 38.2937C88.4367 39.2639 88.6687 40.0275 89.1327 40.5843C89.5967 41.1326 90.2379 41.4068 91.0563 41.4068C91.6468 41.4068 92.1193 41.2803 92.4736 41.0272C92.8364 40.7657 93.0726 40.4071 93.1823 39.9515H94.9666C94.7979 40.8627 94.3719 41.5756 93.6885 42.0902C93.0136 42.6048 92.1446 42.8622 91.0816 42.8622Z" fill="#41E22E"/>
<path d="M99.3744 42.8622C98.767 42.8622 98.2186 42.7229 97.7293 42.4445C97.2484 42.1661 96.8645 41.7823 96.5777 41.2929C96.2993 40.7952 96.16 40.2215 96.16 39.5719C96.16 38.9223 96.3035 38.3528 96.5903 37.8635C96.8772 37.3657 97.261 36.9776 97.7419 36.6992C98.2312 36.4208 98.7796 36.2816 99.387 36.2816C99.986 36.2816 100.526 36.4208 101.007 36.6992C101.496 36.9776 101.88 37.3657 102.158 37.8635C102.445 38.3528 102.589 38.9223 102.589 39.5719C102.589 40.2215 102.445 40.7952 102.158 41.2929C101.88 41.7823 101.496 42.1661 101.007 42.4445C100.518 42.7229 99.9734 42.8622 99.3744 42.8622ZM99.3744 41.4575C99.7962 41.4575 100.163 41.3014 100.475 40.9892C100.788 40.6686 100.944 40.1962 100.944 39.5719C100.944 38.9476 100.788 38.4793 100.475 38.1672C100.163 37.8466 99.8004 37.6863 99.387 37.6863C98.9568 37.6863 98.5856 37.8466 98.2734 38.1672C97.9697 38.4793 97.8178 38.9476 97.8178 39.5719C97.8178 40.1962 97.9697 40.6686 98.2734 40.9892C98.5856 41.3014 98.9526 41.4575 99.3744 41.4575Z" fill="#41E22E"/>
<path d="M104.037 42.7103V36.4335H105.467L105.606 37.2813C105.809 36.9776 106.074 36.7372 106.404 36.56C106.741 36.3744 107.129 36.2816 107.568 36.2816C108.538 36.2816 109.226 36.657 109.631 37.4079C109.858 37.062 110.162 36.7878 110.542 36.5853C110.93 36.3828 111.352 36.2816 111.807 36.2816C112.625 36.2816 113.254 36.5263 113.693 37.0156C114.131 37.5049 114.351 38.222 114.351 39.1669V42.7103H112.731V39.3188C112.731 38.7788 112.625 38.3654 112.415 38.0786C112.212 37.7918 111.896 37.6483 111.465 37.6483C111.027 37.6483 110.672 37.8086 110.402 38.1292C110.141 38.4498 110.01 38.8969 110.01 39.4706V42.7103H108.39V39.3188C108.39 38.7788 108.285 38.3654 108.074 38.0786C107.863 37.7918 107.538 37.6483 107.1 37.6483C106.669 37.6483 106.319 37.8086 106.049 38.1292C105.788 38.4498 105.657 38.8969 105.657 39.4706V42.7103H104.037Z" fill="#41E22E"/>
<path d="M115.889 45.4944V36.4335H117.331L117.508 37.332C117.711 37.0536 117.977 36.8089 118.306 36.598C118.643 36.3871 119.078 36.2816 119.609 36.2816C120.2 36.2816 120.727 36.425 121.191 36.7119C121.655 36.9987 122.022 37.391 122.292 37.8888C122.562 38.3865 122.697 38.9518 122.697 39.5845C122.697 40.2173 122.562 40.7825 122.292 41.2803C122.022 41.7696 121.655 42.1577 121.191 42.4445C120.727 42.7229 120.2 42.8622 119.609 42.8622C119.137 42.8622 118.723 42.7736 118.369 42.5964C118.015 42.4192 117.728 42.1703 117.508 41.8498V45.4944H115.889ZM119.268 41.4448C119.782 41.4448 120.208 41.2719 120.546 40.9259C120.883 40.58 121.052 40.1329 121.052 39.5845C121.052 39.0362 120.883 38.5848 120.546 38.2305C120.208 37.8761 119.782 37.699 119.268 37.699C118.744 37.699 118.314 37.8761 117.977 38.2305C117.648 38.5764 117.483 39.0235 117.483 39.5719C117.483 40.1203 117.648 40.5716 117.977 40.9259C118.314 41.2719 118.744 41.4448 119.268 41.4448Z" fill="#41E22E"/>
<path d="M126.498 42.8622C125.713 42.8622 125.106 42.6175 124.676 42.1282C124.254 41.6388 124.043 40.9217 124.043 39.9768V36.4335H125.65V39.825C125.65 40.3649 125.76 40.7783 125.979 41.0652C126.198 41.352 126.544 41.4954 127.017 41.4954C127.464 41.4954 127.831 41.3351 128.118 41.0145C128.413 40.6939 128.561 40.2468 128.561 39.6731V36.4335H130.18V42.7103H128.75L128.624 41.6473C128.43 42.0185 128.147 42.3138 127.776 42.5331C127.413 42.7525 126.987 42.8622 126.498 42.8622Z" fill="#41E22E"/>
<path d="M134.64 42.7103C133.982 42.7103 133.455 42.55 133.058 42.2294C132.662 41.9088 132.463 41.3393 132.463 40.521V37.7875H131.388V36.4335H132.463L132.653 34.7504H134.083V36.4335H135.779V37.7875H134.083V40.5336C134.083 40.8374 134.146 41.0483 134.273 41.1664C134.408 41.2761 134.636 41.3309 134.956 41.3309H135.741V42.7103H134.64Z" fill="#41E22E"/>
<path d="M138.043 35.459C137.748 35.459 137.503 35.3704 137.309 35.1933C137.123 35.0161 137.03 34.7925 137.03 34.5226C137.03 34.2526 137.123 34.0332 137.309 33.8645C137.503 33.6873 137.748 33.5988 138.043 33.5988C138.338 33.5988 138.579 33.6873 138.764 33.8645C138.958 34.0332 139.055 34.2526 139.055 34.5226C139.055 34.7925 138.958 35.0161 138.764 35.1933C138.579 35.3704 138.338 35.459 138.043 35.459ZM137.233 42.7103V36.4335H138.853V42.7103H137.233Z" fill="#41E22E"/>
<path d="M140.543 42.7103V36.4335H141.973L142.1 37.4965C142.294 37.1253 142.572 36.83 142.935 36.6106C143.306 36.3913 143.741 36.2816 144.239 36.2816C145.015 36.2816 145.618 36.5263 146.048 37.0156C146.479 37.5049 146.694 38.222 146.694 39.1669V42.7103H145.074V39.3188C145.074 38.7788 144.964 38.3654 144.745 38.0786C144.526 37.7918 144.184 37.6483 143.72 37.6483C143.264 37.6483 142.889 37.8086 142.594 38.1292C142.307 38.4498 142.163 38.8969 142.163 39.4706V42.7103H140.543Z" fill="#41E22E"/>
<path d="M150.9 40.8374C150.596 40.8374 150.314 40.8036 150.052 40.7361L149.584 41.2044C149.728 41.2803 149.922 41.3436 150.166 41.3942C150.411 41.4448 150.807 41.4954 151.356 41.546C152.191 41.622 152.798 41.8202 153.178 42.1408C153.558 42.4614 153.748 42.9043 153.748 43.4696C153.748 43.8408 153.646 44.1909 153.444 44.5199C153.241 44.8574 152.929 45.1274 152.507 45.3299C152.086 45.5408 151.546 45.6462 150.888 45.6462C149.993 45.6462 149.272 45.4775 148.724 45.14C148.175 44.811 147.901 44.3132 147.901 43.6468C147.901 43.0815 148.175 42.5922 148.724 42.1788C148.555 42.1029 148.407 42.0227 148.281 41.9383C148.163 41.854 148.057 41.7654 147.964 41.6726V41.3815L149.065 40.2173C148.576 39.787 148.331 39.2344 148.331 38.5595C148.331 38.1377 148.432 37.7538 148.635 37.4079C148.846 37.062 149.141 36.7878 149.521 36.5853C149.9 36.3828 150.36 36.2816 150.9 36.2816C151.255 36.2816 151.584 36.3322 151.887 36.4335H154.266V37.4205L153.191 37.4965C153.359 37.8171 153.444 38.1714 153.444 38.5595C153.444 38.9813 153.343 39.3652 153.14 39.7111C152.938 40.057 152.642 40.3312 152.254 40.5336C151.875 40.7361 151.423 40.8374 150.9 40.8374ZM150.9 39.5972C151.229 39.5972 151.499 39.5086 151.71 39.3314C151.929 39.1543 152.039 38.9012 152.039 38.5721C152.039 38.2431 151.929 37.99 151.71 37.8128C151.499 37.6357 151.229 37.5471 150.9 37.5471C150.554 37.5471 150.276 37.6357 150.065 37.8128C149.854 37.99 149.749 38.2431 149.749 38.5721C149.749 38.9012 149.854 39.1543 150.065 39.3314C150.276 39.5086 150.554 39.5972 150.9 39.5972ZM149.382 43.4822C149.382 43.7944 149.525 44.0264 149.812 44.1783C150.107 44.3386 150.466 44.4187 150.888 44.4187C151.293 44.4187 151.622 44.3343 151.875 44.1656C152.128 44.0053 152.254 43.786 152.254 43.5075C152.254 43.2798 152.17 43.0899 152.001 42.9381C151.841 42.7862 151.516 42.6934 151.027 42.6597C150.681 42.6344 150.36 42.5964 150.065 42.5458C149.82 42.6808 149.643 42.8284 149.533 42.9887C149.432 43.149 149.382 43.3135 149.382 43.4822Z" fill="#41E22E"/>
<path d="M158.501 42.7103V33.8519H160.425L163.247 39.4706L166.031 33.8519H167.954V42.7103H166.334V36.598L163.867 41.4448H162.589L160.121 36.598V42.7103H158.501Z" fill="#41E22E"/>
<path d="M171.799 42.8622C171.259 42.8622 170.816 42.7778 170.47 42.6091C170.124 42.4319 169.867 42.1999 169.698 41.913C169.529 41.6262 169.445 41.3098 169.445 40.9639C169.445 40.3818 169.673 39.9093 170.128 39.5466C170.584 39.1838 171.267 39.0024 172.179 39.0024H173.773V38.8505C173.773 38.4203 173.651 38.1039 173.406 37.9014C173.161 37.699 172.858 37.5977 172.495 37.5977C172.166 37.5977 171.879 37.6779 171.634 37.8382C171.39 37.99 171.238 38.2178 171.179 38.5215H169.597C169.639 38.0659 169.791 37.6694 170.053 37.332C170.322 36.9945 170.668 36.7372 171.09 36.56C171.512 36.3744 171.984 36.2816 172.508 36.2816C173.402 36.2816 174.106 36.5052 174.621 36.9523C175.136 37.3995 175.393 38.0322 175.393 38.8505V42.7103H174.014L173.862 41.6979C173.676 42.0354 173.415 42.3138 173.077 42.5331C172.748 42.7525 172.322 42.8622 171.799 42.8622ZM172.166 41.5967C172.63 41.5967 172.988 41.4448 173.242 41.1411C173.503 40.8374 173.668 40.4619 173.735 40.0148H172.356C171.925 40.0148 171.618 40.0949 171.432 40.2552C171.246 40.4071 171.154 40.5969 171.154 40.8247C171.154 41.0694 171.246 41.2592 171.432 41.3942C171.618 41.5292 171.862 41.5967 172.166 41.5967Z" fill="#41E22E"/>
<path d="M180.014 42.8622C179.373 42.8622 178.807 42.7229 178.318 42.4445C177.829 42.1661 177.441 41.778 177.154 41.2803C176.875 40.7825 176.736 40.2131 176.736 39.5719C176.736 38.9307 176.875 38.3612 177.154 37.8635C177.441 37.3657 177.829 36.9776 178.318 36.6992C178.807 36.4208 179.373 36.2816 180.014 36.2816C180.815 36.2816 181.49 36.4925 182.039 36.9143C182.587 37.3277 182.937 37.9014 183.089 38.6354H181.381C181.296 38.3317 181.127 38.0955 180.874 37.9267C180.63 37.7496 180.339 37.661 180.001 37.661C179.554 37.661 179.174 37.8297 178.862 38.1672C178.55 38.5046 178.394 38.9729 178.394 39.5719C178.394 40.1709 178.55 40.6391 178.862 40.9766C179.174 41.314 179.554 41.4828 180.001 41.4828C180.339 41.4828 180.63 41.3984 180.874 41.2297C181.127 41.0609 181.296 40.8205 181.381 40.5083H183.089C182.937 41.217 182.587 41.7865 182.039 42.2168C181.49 42.647 180.815 42.8622 180.014 42.8622Z" fill="#41E22E"/>
<path d="M184.527 42.7103V33.5988H186.146V37.3952C186.357 37.0493 186.64 36.7794 186.994 36.5853C187.357 36.3828 187.771 36.2816 188.235 36.2816C189.011 36.2816 189.61 36.5263 190.032 37.0156C190.462 37.5049 190.677 38.222 190.677 39.1669V42.7103H189.07V39.3188C189.07 38.7788 188.96 38.3654 188.741 38.0786C188.53 37.7918 188.192 37.6483 187.728 37.6483C187.273 37.6483 186.893 37.8086 186.589 38.1292C186.294 38.4498 186.146 38.8969 186.146 39.4706V42.7103H184.527Z" fill="#41E22E"/>
<path d="M193.099 35.459C192.804 35.459 192.559 35.3704 192.365 35.1933C192.179 35.0161 192.087 34.7925 192.087 34.5226C192.087 34.2526 192.179 34.0332 192.365 33.8645C192.559 33.6873 192.804 33.5988 193.099 33.5988C193.394 33.5988 193.635 33.6873 193.82 33.8645C194.014 34.0332 194.111 34.2526 194.111 34.5226C194.111 34.7925 194.014 35.0161 193.82 35.1933C193.635 35.3704 193.394 35.459 193.099 35.459ZM192.289 42.7103V36.4335H193.909V42.7103H192.289Z" fill="#41E22E"/>
<path d="M195.6 42.7103V36.4335H197.03L197.156 37.4965C197.35 37.1253 197.629 36.83 197.991 36.6106C198.363 36.3913 198.797 36.2816 199.295 36.2816C200.071 36.2816 200.674 36.5263 201.105 37.0156C201.535 37.5049 201.75 38.222 201.75 39.1669V42.7103H200.13V39.3188C200.13 38.7788 200.02 38.3654 199.801 38.0786C199.582 37.7918 199.24 37.6483 198.776 37.6483C198.32 37.6483 197.945 37.8086 197.65 38.1292C197.363 38.4498 197.22 38.8969 197.22 39.4706V42.7103H195.6Z" fill="#41E22E"/>
<path d="M206.349 42.8622C205.716 42.8622 205.155 42.7272 204.666 42.4572C204.176 42.1872 203.792 41.8076 203.514 41.3183C203.236 40.8289 203.096 40.2637 203.096 39.6225C203.096 38.9729 203.231 38.395 203.501 37.8888C203.78 37.3826 204.159 36.9903 204.64 36.7119C205.13 36.425 205.703 36.2816 206.361 36.2816C206.977 36.2816 207.521 36.4166 207.994 36.6866C208.466 36.9565 208.833 37.3277 209.095 37.8002C209.365 38.2642 209.5 38.7831 209.5 39.3567C209.5 39.4495 209.496 39.5466 209.487 39.6478C209.487 39.749 209.483 39.8545 209.475 39.9642H204.704C204.737 40.4535 204.906 40.8374 205.21 41.1158C205.522 41.3942 205.897 41.5334 206.336 41.5334C206.665 41.5334 206.939 41.4617 207.159 41.3183C207.386 41.1664 207.555 40.9724 207.665 40.7361H209.31C209.192 41.1326 208.994 41.4954 208.715 41.8245C208.445 42.145 208.108 42.3981 207.703 42.5837C207.306 42.7693 206.855 42.8622 206.349 42.8622ZM206.361 37.5977C205.965 37.5977 205.615 37.7116 205.311 37.9394C205.007 38.1587 204.813 38.4962 204.729 38.9518H207.855C207.829 38.5384 207.678 38.2094 207.399 37.9647C207.121 37.72 206.775 37.5977 206.361 37.5977Z" fill="#41E22E"/>
<path d="M210.862 42.7103V36.4335H212.305L212.457 37.6104C212.685 37.2054 212.992 36.8848 213.381 36.6486C213.777 36.4039 214.241 36.2816 214.773 36.2816V37.99H214.317C213.963 37.99 213.646 38.0449 213.368 38.1545C213.089 38.2642 212.87 38.454 212.71 38.724C212.558 38.994 212.482 39.3694 212.482 39.8503V42.7103H210.862Z" fill="#41E22E"/>
<path d="M216.664 45.4944L218.12 42.2927H217.74L215.298 36.4335H217.057L218.816 40.85L220.651 36.4335H222.372L218.385 45.4944H216.664Z" fill="#41E22E"/>
<path d="M88.9144 62.4836L86.4183 55.8398H87.2819L89.3795 61.6389L91.496 55.8398H92.3407L89.8446 62.4836H88.9144Z" fill="#41E22E"/>
<path d="M93.2516 62.4836V55.8398H94.0489V62.4836H93.2516Z" fill="#41E22E"/>
<path d="M97.0141 62.4836V56.4946H95.0305V55.8398H99.795V56.4946H97.8114V62.4836H97.0141Z" fill="#41E22E"/>
<path d="M105.397 62.5975C104.91 62.5975 104.486 62.5089 104.125 62.3317C103.764 62.1545 103.486 61.9078 103.29 61.5914C103.094 61.275 102.996 60.908 102.996 60.4904H103.831C103.831 60.7499 103.891 60.9903 104.011 61.2118C104.131 61.4269 104.305 61.6009 104.533 61.7338C104.767 61.8603 105.055 61.9236 105.397 61.9236C105.846 61.9236 106.194 61.816 106.441 61.6009C106.688 61.3858 106.811 61.1168 106.811 60.7941C106.811 60.5284 106.754 60.3164 106.64 60.1582C106.526 59.9937 106.371 59.8608 106.175 59.7596C105.985 59.6584 105.764 59.5698 105.511 59.4939C105.264 59.4179 105.005 59.3325 104.733 59.2376C104.22 59.0604 103.84 58.8421 103.594 58.5827C103.347 58.3169 103.223 57.9721 103.223 57.5482C103.217 57.1938 103.299 56.8806 103.47 56.6085C103.641 56.3301 103.881 56.115 104.192 55.9631C104.508 55.8049 104.881 55.7259 105.311 55.7259C105.735 55.7259 106.102 55.8049 106.412 55.9631C106.729 56.1213 106.972 56.3396 107.143 56.618C107.32 56.8964 107.412 57.2128 107.419 57.5671H106.583C106.583 57.3836 106.536 57.2033 106.441 57.0261C106.346 56.8427 106.2 56.694 106.004 56.5801C105.815 56.4662 105.574 56.4092 105.283 56.4092C104.922 56.4029 104.625 56.4946 104.391 56.6845C104.163 56.8743 104.049 57.1369 104.049 57.4722C104.049 57.757 104.128 57.9753 104.286 58.1271C104.451 58.279 104.679 58.4055 104.97 58.5068C105.261 58.6017 105.596 58.7124 105.976 58.839C106.292 58.9529 106.577 59.0857 106.83 59.2376C107.083 59.3895 107.279 59.5856 107.419 59.826C107.564 60.0665 107.637 60.3734 107.637 60.7467C107.637 61.0631 107.555 61.3636 107.39 61.6484C107.226 61.9268 106.976 62.1545 106.64 62.3317C106.311 62.5089 105.897 62.5975 105.397 62.5975Z" fill="#41E22E"/>
<path d="M110.58 62.4836C110.15 62.4836 109.811 62.3792 109.565 62.1704C109.318 61.9616 109.195 61.5851 109.195 61.0409V58.4498H108.378V57.776H109.195L109.299 56.6465H109.992V57.776H111.378V58.4498H109.992V61.0409C109.992 61.3383 110.052 61.5408 110.172 61.6484C110.292 61.7496 110.504 61.8002 110.808 61.8002H111.302V62.4836H110.58Z" fill="#41E22E"/>
<path d="M114.108 62.5975C113.551 62.5975 113.109 62.4298 112.78 62.0944C112.451 61.7528 112.286 61.2307 112.286 60.5284V57.776H113.083V60.443C113.083 61.4237 113.485 61.9141 114.289 61.9141C114.7 61.9141 115.038 61.7686 115.304 61.4775C115.576 61.1801 115.712 60.7593 115.712 60.2152V57.776H116.51V62.4836H115.788L115.731 61.6389C115.586 61.9362 115.367 62.1704 115.076 62.3412C114.792 62.5121 114.469 62.5975 114.108 62.5975Z" fill="#41E22E"/>
<path d="M119.957 62.5975C119.489 62.5975 119.078 62.4899 118.724 62.2748C118.376 62.0596 118.103 61.7654 117.907 61.3921C117.717 61.0188 117.623 60.5948 117.623 60.1203C117.623 59.6457 117.721 59.2249 117.917 58.8579C118.113 58.4846 118.385 58.1936 118.733 57.9848C119.081 57.7696 119.492 57.6621 119.967 57.6621C120.353 57.6621 120.695 57.7412 120.992 57.8993C121.289 58.0575 121.52 58.279 121.685 58.5637V55.6499H122.482V62.4836H121.761L121.685 61.7053C121.533 61.9331 121.315 62.1387 121.03 62.3222C120.745 62.5057 120.388 62.5975 119.957 62.5975ZM120.043 61.9046C120.359 61.9046 120.638 61.8318 120.878 61.6863C121.125 61.5345 121.315 61.3257 121.448 61.0599C121.587 60.7941 121.656 60.4841 121.656 60.1298C121.656 59.7754 121.587 59.4654 121.448 59.1996C121.315 58.9339 121.125 58.7282 120.878 58.5827C120.638 58.4308 120.359 58.3549 120.043 58.3549C119.733 58.3549 119.454 58.4308 119.208 58.5827C118.967 58.7282 118.777 58.9339 118.638 59.1996C118.505 59.4654 118.439 59.7754 118.439 60.1298C118.439 60.4841 118.505 60.7941 118.638 61.0599C118.777 61.3257 118.967 61.5345 119.208 61.6863C119.454 61.8318 119.733 61.9046 120.043 61.9046Z" fill="#41E22E"/>
<path d="M125.898 62.5975C125.449 62.5975 125.05 62.4962 124.702 62.2938C124.354 62.0849 124.079 61.797 123.877 61.4301C123.68 61.0631 123.582 60.6296 123.582 60.1298C123.582 59.6362 123.68 59.206 123.877 58.839C124.073 58.4656 124.345 58.1777 124.693 57.9753C125.047 57.7665 125.455 57.6621 125.917 57.6621C126.373 57.6621 126.765 57.7665 127.094 57.9753C127.429 58.1777 127.686 58.4467 127.863 58.782C128.04 59.1174 128.129 59.478 128.129 59.864C128.129 59.9336 128.125 60.0032 128.119 60.0728C128.119 60.1424 128.119 60.2215 128.119 60.3101H124.37C124.389 60.6708 124.471 60.9713 124.617 61.2118C124.769 61.4459 124.955 61.623 125.177 61.7433C125.405 61.8635 125.645 61.9236 125.898 61.9236C126.227 61.9236 126.502 61.8477 126.724 61.6958C126.945 61.5439 127.107 61.3383 127.208 61.0789H127.996C127.869 61.5155 127.626 61.8793 127.265 62.1704C126.911 62.4551 126.455 62.5975 125.898 62.5975ZM125.898 58.3359C125.519 58.3359 125.18 58.453 124.883 58.6871C124.592 58.9149 124.424 59.2502 124.38 59.6932H127.341C127.322 59.2692 127.176 58.937 126.904 58.6966C126.632 58.4562 126.297 58.3359 125.898 58.3359Z" fill="#41E22E"/>
<path d="M129.185 62.4836V57.776H129.907L129.954 58.6207C130.106 58.3233 130.324 58.0892 130.609 57.9183C130.894 57.7475 131.216 57.6621 131.577 57.6621C132.134 57.6621 132.577 57.8329 132.906 58.1746C133.241 58.5099 133.409 59.0288 133.409 59.7311V62.4836H132.612V59.8166C132.612 58.8358 132.207 58.3454 131.397 58.3454C130.992 58.3454 130.653 58.4941 130.381 58.7915C130.115 59.0826 129.983 59.5002 129.983 60.0443V62.4836H129.185Z" fill="#41E22E"/>
<path d="M136.477 62.4836C136.047 62.4836 135.708 62.3792 135.462 62.1704C135.215 61.9616 135.091 61.5851 135.091 61.0409V58.4498H134.275V57.776H135.091L135.196 56.6465H135.889V57.776H137.274V58.4498H135.889V61.0409C135.889 61.3383 135.949 61.5408 136.069 61.6484C136.189 61.7496 136.401 61.8002 136.705 61.8002H137.198V62.4836H136.477Z" fill="#41E22E"/>
<path d="M143.76 62.5975C143.109 62.5975 142.545 62.4551 142.071 62.1704C141.603 61.8793 141.239 61.4775 140.979 60.965C140.72 60.4461 140.59 59.845 140.59 59.1617C140.59 58.4846 140.72 57.8898 140.979 57.3773C141.239 56.8585 141.603 56.4535 142.071 56.1625C142.545 55.8714 143.109 55.7259 143.76 55.7259C144.52 55.7259 145.137 55.9094 145.611 56.2763C146.092 56.637 146.399 57.1432 146.532 57.7949H145.649C145.548 57.3836 145.339 57.0546 145.023 56.8078C144.713 56.5548 144.292 56.4282 143.76 56.4282C143.286 56.4282 142.871 56.5389 142.517 56.7604C142.163 56.9755 141.887 57.2887 141.691 57.7C141.501 58.105 141.406 58.5922 141.406 59.1617C141.406 59.7311 141.501 60.2215 141.691 60.6328C141.887 61.0378 142.163 61.351 142.517 61.5724C142.871 61.7876 143.286 61.8951 143.76 61.8951C144.292 61.8951 144.713 61.7749 145.023 61.5345C145.339 61.2877 145.548 60.9618 145.649 60.5569H146.532C146.399 61.1959 146.092 61.6958 145.611 62.0565C145.137 62.4171 144.52 62.5975 143.76 62.5975Z" fill="#41E22E"/>
<path d="M147.63 62.4836V55.6499H148.427V58.5827C148.586 58.2916 148.81 58.067 149.101 57.9088C149.392 57.7443 149.709 57.6621 150.05 57.6621C150.595 57.6621 151.031 57.8329 151.36 58.1746C151.689 58.5099 151.854 59.0288 151.854 59.7311V62.4836H151.066V59.8166C151.066 58.8358 150.67 58.3454 149.88 58.3454C149.468 58.3454 149.123 58.4941 148.845 58.7915C148.567 59.0826 148.427 59.5002 148.427 60.0443V62.4836H147.63Z" fill="#41E22E"/>
<path d="M154.628 62.5975C154.235 62.5975 153.909 62.531 153.65 62.3982C153.391 62.2653 153.198 62.0881 153.071 61.8666C152.945 61.6452 152.881 61.4047 152.881 61.1453C152.881 60.6644 153.065 60.2943 153.432 60.0349C153.799 59.7754 154.299 59.6457 154.931 59.6457H156.203V59.5888C156.203 59.1775 156.096 58.8674 155.88 58.6586C155.665 58.4435 155.377 58.3359 155.017 58.3359C154.707 58.3359 154.438 58.415 154.21 58.5732C153.989 58.7251 153.849 58.9497 153.792 59.2471H152.976C153.008 58.9054 153.122 58.6175 153.318 58.3834C153.52 58.1493 153.77 57.9721 154.068 57.8519C154.365 57.7253 154.681 57.6621 155.017 57.6621C155.675 57.6621 156.168 57.8392 156.497 58.1936C156.833 58.5416 157 59.0066 157 59.5888V62.4836H156.289L156.241 61.6389C156.108 61.9046 155.912 62.1324 155.653 62.3222C155.4 62.5057 155.058 62.5975 154.628 62.5975ZM154.751 61.9236C155.055 61.9236 155.314 61.8445 155.529 61.6863C155.751 61.5281 155.918 61.3225 156.032 61.0694C156.146 60.8163 156.203 60.5505 156.203 60.2721V60.2626H154.998C154.53 60.2626 154.197 60.3449 154.001 60.5094C153.811 60.6676 153.716 60.8669 153.716 61.1074C153.716 61.3541 153.805 61.5534 153.982 61.7053C154.166 61.8508 154.422 61.9236 154.751 61.9236Z" fill="#41E22E"/>
<path d="M158.196 64.5716V57.776H158.918L158.994 58.5542C159.146 58.3264 159.361 58.1208 159.639 57.9373C159.924 57.7538 160.285 57.6621 160.721 57.6621C161.189 57.6621 161.597 57.7696 161.945 57.9848C162.293 58.1999 162.562 58.4941 162.752 58.8674C162.948 59.2408 163.046 59.6647 163.046 60.1393C163.046 60.6138 162.948 61.0378 162.752 61.4111C162.562 61.7781 162.29 62.0691 161.936 62.2843C161.588 62.4931 161.18 62.5975 160.712 62.5975C160.326 62.5975 159.981 62.5184 159.677 62.3602C159.38 62.202 159.152 61.9805 158.994 61.6958V64.5716H158.196ZM160.626 61.9046C160.943 61.9046 161.221 61.8318 161.461 61.6863C161.702 61.5345 161.892 61.3257 162.031 61.0599C162.17 60.7941 162.24 60.4841 162.24 60.1298C162.24 59.7754 162.17 59.4654 162.031 59.1996C161.892 58.9339 161.702 58.7282 161.461 58.5827C161.221 58.4308 160.943 58.3549 160.626 58.3549C160.31 58.3549 160.031 58.4308 159.791 58.5827C159.551 58.7282 159.361 58.9339 159.221 59.1996C159.082 59.4654 159.013 59.7754 159.013 60.1298C159.013 60.4841 159.082 60.7941 159.221 61.0599C159.361 61.3257 159.551 61.5345 159.791 61.6863C160.031 61.8318 160.31 61.9046 160.626 61.9046Z" fill="#41E22E"/>
<path d="M165.831 62.4836C165.401 62.4836 165.062 62.3792 164.816 62.1704C164.569 61.9616 164.445 61.5851 164.445 61.0409V58.4498H163.629V57.776H164.445L164.55 56.6465H165.243V57.776H166.628V58.4498H165.243V61.0409C165.243 61.3383 165.303 61.5408 165.423 61.6484C165.543 61.7496 165.755 61.8002 166.059 61.8002H166.552V62.4836H165.831Z" fill="#41E22E"/>
<path d="M169.628 62.5975C169.179 62.5975 168.78 62.4962 168.432 62.2938C168.084 62.0849 167.809 61.797 167.606 61.4301C167.41 61.0631 167.312 60.6296 167.312 60.1298C167.312 59.6362 167.41 59.206 167.606 58.839C167.803 58.4656 168.075 58.1777 168.423 57.9753C168.777 57.7665 169.185 57.6621 169.647 57.6621C170.103 57.6621 170.495 57.7665 170.824 57.9753C171.159 58.1777 171.416 58.4467 171.593 58.782C171.77 59.1174 171.858 59.478 171.858 59.864C171.858 59.9336 171.855 60.0032 171.849 60.0728C171.849 60.1424 171.849 60.2215 171.849 60.3101H168.1C168.119 60.6708 168.201 60.9713 168.347 61.2118C168.499 61.4459 168.685 61.623 168.907 61.7433C169.135 61.8635 169.375 61.9236 169.628 61.9236C169.957 61.9236 170.232 61.8477 170.454 61.6958C170.675 61.5439 170.837 61.3383 170.938 61.0789H171.726C171.599 61.5155 171.355 61.8793 170.995 62.1704C170.64 62.4551 170.185 62.5975 169.628 62.5975ZM169.628 58.3359C169.248 58.3359 168.91 58.453 168.613 58.6871C168.321 58.9149 168.154 59.2502 168.109 59.6932H171.071C171.052 59.2692 170.906 58.937 170.634 58.6966C170.362 58.4562 170.027 58.3359 169.628 58.3359Z" fill="#41E22E"/>
<path d="M172.915 62.4836V57.776H173.637L173.703 58.6776C173.849 58.3676 174.07 58.1208 174.367 57.9373C174.665 57.7538 175.032 57.6621 175.468 57.6621V58.4973H175.25C174.972 58.4973 174.715 58.5479 174.481 58.6491C174.247 58.7441 174.06 58.9086 173.921 59.1427C173.782 59.3768 173.712 59.6995 173.712 60.1108V62.4836H172.915Z" fill="#41E22E"/>
</svg>
