<svg width="172" height="62" viewBox="0 0 172 62" fill="none" xmlns="http://www.w3.org/2000/svg">
<g clip-path="url(#clip0_44_83)">
<path fill-rule="evenodd" clip-rule="evenodd" d="M37.4628 2.86609C33.6414 -0.955362 27.4456 -0.955363 23.6241 2.86609L2.86609 23.6241C-0.955362 27.4456 -0.955363 33.6414 2.86609 37.4628L23.6241 58.2209C27.4456 62.0423 33.6414 62.0423 37.4628 58.2209L58.2209 37.4628C62.0423 33.6414 62.0423 27.4456 58.2209 23.6241L37.4628 2.86609ZM22.0807 32.5606C22.0765 33.2749 22.0889 33.9934 22.1633 34.7078C22.1759 34.8239 22.1918 34.9401 22.2077 35.0557C22.2228 35.166 22.2379 35.2761 22.25 35.3849C22.1905 35.4246 22.1311 35.4219 22.0716 35.4193C22.068 35.4191 22.0644 35.419 22.0607 35.4188C22.0495 35.4184 22.0382 35.418 22.027 35.418H19.4793C19.4683 35.418 19.4573 35.4175 19.4463 35.4171C19.4242 35.4161 19.4022 35.4152 19.3802 35.418C19.2728 35.4304 19.2398 35.3767 19.2357 35.2735C19.2283 35.0612 19.2164 34.8505 19.2046 34.6395L19.2046 34.639C19.1966 34.4971 19.1886 34.355 19.182 34.2123C19.1793 34.156 19.1801 34.0998 19.181 34.0369C19.1815 34.0027 19.182 33.9665 19.182 33.9273C19.0784 33.9629 19.0408 34.0265 19.0055 34.0861C18.9958 34.1025 18.9862 34.1186 18.9755 34.1338C18.5585 34.7284 18.0465 35.1991 17.3486 35.4469C16.9151 35.6038 16.465 35.6616 16.0108 35.6492C15.3501 35.6327 14.7018 35.5212 14.099 35.2239C13.2401 34.8027 12.7074 34.1379 12.5505 33.1841C12.5381 33.1098 12.5257 33.0354 12.4597 32.9859V32.2426C12.5327 32.2044 12.5413 32.1339 12.5496 32.0657C12.5505 32.0578 12.5515 32.05 12.5525 32.0423C12.5532 32.0375 12.5539 32.0327 12.5546 32.0279C12.7033 31.1567 13.1905 30.5208 13.9462 30.0872C14.5408 29.7445 15.1932 29.5669 15.8662 29.4678C16.8407 29.3233 17.8194 29.3109 18.798 29.4554C18.9962 29.4843 19.0127 29.4719 18.992 29.2696C18.9342 28.708 18.6782 28.2869 18.1538 28.0474C17.9061 27.9318 17.6418 27.8616 17.3693 27.8409C16.2957 27.7625 15.2427 27.8698 14.2393 28.2869C14.1564 28.3228 14.0758 28.3611 13.9957 28.3992L13.9954 28.3993C13.9282 28.4313 13.8612 28.4632 13.7934 28.4933C13.7348 28.4608 13.7404 28.4129 13.7453 28.3698C13.7467 28.3582 13.748 28.3469 13.748 28.3364L13.7467 28.2894C13.7306 27.6942 13.7146 27.1026 13.7026 26.5072C13.6985 26.2982 13.7025 26.2966 13.8882 26.2239L13.8925 26.2223C14.7059 25.9085 15.5524 25.735 16.4196 25.6607C17.0513 25.607 17.6831 25.5864 18.319 25.6566C19.054 25.7392 19.7601 25.9126 20.4042 26.2966C21.325 26.8458 21.8288 27.6675 22.0146 28.7039C22.0683 28.9888 22.0807 29.2779 22.0807 29.5669V32.5606ZM15.6309 32.6762C15.7548 33.0685 16.0521 33.2832 16.4319 33.374C17.9845 33.7539 18.9508 32.4656 19.0003 31.297C19.0044 31.2062 18.9755 31.1649 18.8764 31.1608C18.6828 31.1525 18.4901 31.1433 18.2975 31.134L18.2963 31.1339C18.1032 31.1247 17.9102 31.1154 17.7161 31.1071C17.4684 31.0947 17.2206 31.1236 16.977 31.1567C16.6467 31.1979 16.3287 31.2847 16.0521 31.4787C15.6639 31.7471 15.4905 32.2344 15.6309 32.6762ZM31.0121 28.5388C30.8965 28.4809 30.7891 28.4273 30.6735 28.3777C29.9303 28.0474 29.154 27.94 28.3571 28.1258C27.3454 28.3653 26.66 29.1581 26.5196 30.1863C26.4494 30.6942 26.4659 31.1938 26.6765 31.6646C27.0729 32.5523 27.7914 33.0313 28.7287 33.1841C29.5132 33.308 30.273 33.18 31.008 32.8951C31.0422 32.8817 31.0764 32.8676 31.1099 32.8537C31.149 32.8375 31.1871 32.8217 31.2227 32.8083C31.2733 32.8218 31.2743 32.8491 31.2752 32.8744C31.2754 32.878 31.2755 32.8816 31.2758 32.8851C31.2759 32.8871 31.2761 32.889 31.2764 32.8909C31.2832 33.1281 31.2896 33.3649 31.2959 33.6015C31.3088 34.0816 31.3217 34.561 31.3383 35.0422C31.3425 35.1826 31.297 35.2446 31.1608 35.2859C30.6446 35.4386 30.1202 35.5377 29.5876 35.5997C28.5759 35.7153 27.5766 35.6534 26.6021 35.3602C25.4955 35.0257 24.5665 34.4311 23.8975 33.4731C23.4351 32.8083 23.1914 32.0651 23.1006 31.264C23.0139 30.463 23.0841 29.6825 23.3401 28.9228C23.8026 27.5684 24.7399 26.6517 26.0488 26.1108C27.0481 25.6979 28.0969 25.5699 29.1746 25.6442C29.8229 25.6896 30.4506 25.8052 31.0493 26.0571C31.277 26.153 31.2767 26.1561 31.254 26.3768L31.2516 26.3998C31.1897 26.9986 31.1319 27.5973 31.0741 28.196C31.0726 28.2145 31.0716 28.2333 31.0705 28.2523C31.0654 28.3434 31.06 28.4397 31.0121 28.5388ZM35.6125 27.4778C35.595 27.5165 35.5749 27.5612 35.4923 27.5684V26.0819C35.4923 25.8548 35.4923 25.8506 35.2652 25.8506H32.7175C32.4863 25.8506 32.4821 25.8506 32.4821 26.0777V35.2115C32.4821 35.4221 32.4863 35.4262 32.701 35.4262H35.5708C35.7854 35.4262 35.7855 35.4221 35.7896 35.2118L35.7896 31.3012C35.7896 30.9378 35.8185 30.5786 35.8846 30.2193C35.963 29.7775 36.0993 29.3563 36.3718 28.9888C36.7847 28.4355 37.4537 28.2951 38.007 28.4149C38.4529 28.5098 38.7048 28.8319 38.8535 29.2407C38.9815 29.5917 39.0104 29.9633 39.0104 30.3349V35.1124C39.0104 35.1317 39.0108 35.151 39.0113 35.1702C39.0122 35.2088 39.0131 35.2473 39.0104 35.2858C39.0021 35.3973 39.0599 35.4304 39.159 35.4221C39.1866 35.4194 39.2141 35.4203 39.2416 35.4212C39.2554 35.4217 39.2691 35.4221 39.2829 35.4221H42.2022C42.2848 35.4262 42.322 35.3849 42.3179 35.3024C42.3151 35.2638 42.316 35.2253 42.3169 35.1867C42.3174 35.1675 42.3179 35.1482 42.3179 35.1289C42.3179 34.7241 42.3183 34.3198 42.3188 33.9156C42.3197 33.1076 42.3206 32.3003 42.3179 31.4911C42.3179 31.136 42.3261 30.7809 42.3757 30.4299C42.4335 30.0087 42.5326 29.6041 42.739 29.2283C42.9372 28.8732 43.2098 28.5924 43.6103 28.4686C44.5146 28.1919 45.2124 28.5016 45.4436 29.4554C45.5056 29.7156 45.5345 29.9757 45.5345 30.24V35.3148C45.5345 35.3808 45.5593 35.4221 45.6336 35.4221H48.5777C48.7208 35.4221 48.787 35.4262 48.8174 35.3952C48.8483 35.3635 48.842 35.2955 48.842 35.1496C48.842 34.6016 48.8415 34.0541 48.8411 33.5068C48.8401 32.4125 48.8392 31.3189 48.842 30.2235C48.842 29.7775 48.8296 29.3357 48.8048 28.8897C48.7842 28.4686 48.7181 28.0515 48.6025 27.6468C48.301 26.5733 47.6032 25.925 46.509 25.7144C45.9392 25.607 45.3652 25.5781 44.7871 25.6648C43.9406 25.7928 43.1974 26.1314 42.5904 26.7549C42.438 26.9104 42.3091 27.0846 42.1806 27.2582C42.1385 27.3151 42.0964 27.3719 42.0536 27.428C41.9985 27.3858 41.9739 27.331 41.9499 27.2774C41.9433 27.2627 41.9368 27.2481 41.9297 27.2339C41.5829 26.5402 41.0419 26.0736 40.3152 25.8217C39.5678 25.5616 38.808 25.5575 38.0441 25.7144C36.9829 25.9332 36.1447 26.4824 35.6203 27.461C35.6176 27.4664 35.6151 27.4721 35.6125 27.4778Z" fill="#41E22E"/>
<path d="M66.1988 20.1825L68.7039 13.3327H70.113L72.6181 20.1825H71.2873L70.7393 18.5972H68.0678L67.5101 20.1825H66.1988ZM68.4103 17.6187H70.3968L69.3987 14.7711L68.4103 17.6187Z" fill="#41E22E"/>
<path d="M75.4771 20.2999C75.0465 20.2999 74.6682 20.2314 74.342 20.0944C74.0158 19.9509 73.7549 19.7552 73.5592 19.5073C73.3634 19.2594 73.246 18.9723 73.2069 18.6462H74.4692C74.5083 18.8353 74.6127 18.9984 74.7823 19.1354C74.9585 19.2659 75.1835 19.3311 75.4575 19.3311C75.7315 19.3311 75.9305 19.2757 76.0544 19.1648C76.1849 19.0539 76.2502 18.9267 76.2502 18.7831C76.2502 18.5744 76.1588 18.4341 75.9762 18.3624C75.7935 18.2841 75.5391 18.2091 75.2129 18.1373C75.0041 18.0916 74.7921 18.0362 74.5768 17.971C74.3616 17.9057 74.1626 17.8242 73.9799 17.7263C73.8038 17.6219 73.6603 17.4915 73.5494 17.3349C73.4385 17.1718 73.383 16.9728 73.383 16.738C73.383 16.3074 73.5526 15.9454 73.8919 15.6518C74.2376 15.3582 74.7204 15.2115 75.3401 15.2115C75.9142 15.2115 76.3708 15.3452 76.7101 15.6127C77.0558 15.8801 77.2613 16.2487 77.3266 16.7184H76.1425C76.0708 16.3596 75.8 16.1802 75.3303 16.1802C75.0955 16.1802 74.9128 16.2259 74.7823 16.3172C74.6584 16.4085 74.5964 16.5227 74.5964 16.6597C74.5964 16.8032 74.691 16.9174 74.8802 17.0022C75.0694 17.087 75.3205 17.1653 75.6337 17.237C75.9729 17.3153 76.2828 17.4034 76.5633 17.5013C76.8503 17.5926 77.0787 17.7328 77.2483 17.922C77.4179 18.1047 77.5027 18.3689 77.5027 18.7146C77.5092 19.0147 77.4309 19.2855 77.2678 19.5268C77.1048 19.7682 76.8699 19.9574 76.5633 20.0944C76.2567 20.2314 75.8946 20.2999 75.4771 20.2999Z" fill="#41E22E"/>
<path d="M80.6183 20.2999C80.1877 20.2999 79.8094 20.2314 79.4832 20.0944C79.157 19.9509 78.896 19.7552 78.7003 19.5073C78.5046 19.2594 78.3872 18.9723 78.3481 18.6462H79.6104C79.6495 18.8353 79.7539 18.9984 79.9235 19.1354C80.0997 19.2659 80.3247 19.3311 80.5987 19.3311C80.8727 19.3311 81.0717 19.2757 81.1956 19.1648C81.3261 19.0539 81.3913 18.9267 81.3913 18.7831C81.3913 18.5744 81.3 18.4341 81.1173 18.3624C80.9347 18.2841 80.6803 18.2091 80.3541 18.1373C80.1453 18.0916 79.9333 18.0362 79.718 17.971C79.5027 17.9057 79.3038 17.8242 79.1211 17.7263C78.945 17.6219 78.8015 17.4915 78.6906 17.3349C78.5797 17.1718 78.5242 16.9728 78.5242 16.738C78.5242 16.3074 78.6938 15.9454 79.033 15.6518C79.3788 15.3582 79.8615 15.2115 80.4813 15.2115C81.0554 15.2115 81.512 15.3452 81.8512 15.6127C82.197 15.8801 82.4025 16.2487 82.4677 16.7184H81.2837C81.2119 16.3596 80.9412 16.1802 80.4715 16.1802C80.2366 16.1802 80.054 16.2259 79.9235 16.3172C79.7996 16.4085 79.7376 16.5227 79.7376 16.6597C79.7376 16.8032 79.8322 16.9174 80.0214 17.0022C80.2105 17.087 80.4617 17.1653 80.7748 17.237C81.1141 17.3153 81.4239 17.4034 81.7045 17.5013C81.9915 17.5926 82.2198 17.7328 82.3895 17.922C82.5591 18.1047 82.6439 18.3689 82.6439 18.7146C82.6504 19.0147 82.5721 19.2855 82.409 19.5268C82.2459 19.7682 82.0111 19.9574 81.7045 20.0944C81.3979 20.2314 81.0358 20.2999 80.6183 20.2999Z" fill="#41E22E"/>
<path d="M86.0824 20.2999C85.6127 20.2999 85.1886 20.1923 84.8103 19.977C84.4384 19.7617 84.1416 19.4649 83.9198 19.0865C83.7045 18.7016 83.5969 18.258 83.5969 17.7557C83.5969 17.2534 83.7078 16.813 83.9296 16.4346C84.1514 16.0497 84.4482 15.7497 84.8201 15.5344C85.1984 15.3191 85.6225 15.2115 86.0922 15.2115C86.5553 15.2115 86.9729 15.3191 87.3447 15.5344C87.7231 15.7497 88.0199 16.0497 88.2352 16.4346C88.457 16.813 88.5679 17.2534 88.5679 17.7557C88.5679 18.258 88.457 18.7016 88.2352 19.0865C88.0199 19.4649 87.7231 19.7617 87.3447 19.977C86.9663 20.1923 86.5455 20.2999 86.0824 20.2999ZM86.0824 19.2137C86.4086 19.2137 86.6923 19.093 86.9337 18.8516C87.1751 18.6037 87.2958 18.2384 87.2958 17.7557C87.2958 17.2729 87.1751 16.9109 86.9337 16.6695C86.6923 16.4216 86.4118 16.2976 86.0922 16.2976C85.7595 16.2976 85.4724 16.4216 85.231 16.6695C84.9962 16.9109 84.8788 17.2729 84.8788 17.7557C84.8788 18.2384 84.9962 18.6037 85.231 18.8516C85.4724 19.093 85.7562 19.2137 86.0824 19.2137Z" fill="#41E22E"/>
<path d="M92.0656 20.2999C91.5698 20.2999 91.1328 20.1923 90.7544 19.977C90.376 19.7617 90.0759 19.4616 89.8541 19.0767C89.6388 18.6918 89.5312 18.2515 89.5312 17.7557C89.5312 17.2599 89.6388 16.8195 89.8541 16.4346C90.0759 16.0497 90.376 15.7497 90.7544 15.5344C91.1328 15.3191 91.5698 15.2115 92.0656 15.2115C92.6854 15.2115 93.2073 15.3746 93.6313 15.7007C94.0553 16.0204 94.3261 16.464 94.4435 17.0316H93.1225C93.0572 16.7967 92.9268 16.614 92.731 16.4836C92.5419 16.3466 92.3168 16.2781 92.0559 16.2781C91.7101 16.2781 91.4165 16.4085 91.1752 16.6695C90.9338 16.9304 90.8131 17.2925 90.8131 17.7557C90.8131 18.2189 90.9338 18.5809 91.1752 18.8419C91.4165 19.1028 91.7101 19.2333 92.0559 19.2333C92.3168 19.2333 92.5419 19.168 92.731 19.0376C92.9268 18.9071 93.0572 18.7212 93.1225 18.4798H94.4435C94.3261 19.0278 94.0553 19.4681 93.6313 19.8008C93.2073 20.1335 92.6854 20.2999 92.0656 20.2999Z" fill="#41E22E"/>
<path d="M96.2304 14.5754C96.0021 14.5754 95.8129 14.5069 95.6629 14.3699C95.5193 14.2329 95.4476 14.06 95.4476 13.8513C95.4476 13.6425 95.5193 13.4729 95.6629 13.3424C95.8129 13.2054 96.0021 13.1369 96.2304 13.1369C96.4587 13.1369 96.6447 13.2054 96.7882 13.3424C96.9382 13.4729 97.0132 13.6425 97.0132 13.8513C97.0132 14.06 96.9382 14.2329 96.7882 14.3699C96.6447 14.5069 96.4587 14.5754 96.2304 14.5754ZM95.6041 20.1825V15.3289H96.8567V20.1825H95.6041Z" fill="#41E22E"/>
<path d="M99.8373 20.2999C99.4198 20.2999 99.0773 20.2347 98.8099 20.1042C98.5424 19.9672 98.3434 19.7878 98.213 19.566C98.0825 19.3442 98.0173 19.0995 98.0173 18.8321C98.0173 18.3819 98.1934 18.0166 98.5457 17.7361C98.8979 17.4556 99.4263 17.3153 100.131 17.3153H101.364V17.1979C101.364 16.8652 101.269 16.6206 101.08 16.464C100.891 16.3074 100.656 16.2291 100.376 16.2291C100.121 16.2291 99.8993 16.2911 99.7101 16.4151C99.5209 16.5325 99.4035 16.7086 99.3579 16.9435H98.1347C98.1673 16.5912 98.2847 16.2846 98.4869 16.0237C98.6957 15.7627 98.9632 15.5637 99.2894 15.4267C99.6155 15.2832 99.9809 15.2115 100.385 15.2115C101.077 15.2115 101.622 15.3843 102.019 15.7301C102.417 16.0758 102.616 16.5651 102.616 17.1979V20.1825H101.55L101.432 19.3996C101.289 19.6606 101.087 19.8759 100.826 20.0455C100.571 20.2151 100.242 20.2999 99.8373 20.2999ZM100.121 19.3213C100.48 19.3213 100.757 19.2039 100.953 18.9691C101.155 18.7342 101.282 18.4439 101.335 18.0982H100.268C99.9352 18.0982 99.6971 18.1601 99.5536 18.2841C99.41 18.4015 99.3383 18.5483 99.3383 18.7244C99.3383 18.9136 99.41 19.0604 99.5536 19.1648C99.6971 19.2692 99.8863 19.3213 100.121 19.3213Z" fill="#41E22E"/>
<path d="M105.907 20.1825C105.399 20.1825 104.991 20.0585 104.684 19.8106C104.378 19.5627 104.224 19.1224 104.224 18.4896V16.3759H103.393V15.3289H104.224L104.371 14.0274H105.477V15.3289H106.788V16.3759H105.477V18.4994C105.477 18.7342 105.526 18.8973 105.624 18.9886C105.728 19.0734 105.904 19.1159 106.152 19.1159H106.759V20.1825H105.907Z" fill="#41E22E"/>
<path d="M108.539 14.5754C108.31 14.5754 108.121 14.5069 107.971 14.3699C107.828 14.2329 107.756 14.06 107.756 13.8513C107.756 13.6425 107.828 13.4729 107.971 13.3424C108.121 13.2054 108.31 13.1369 108.539 13.1369C108.767 13.1369 108.953 13.2054 109.096 13.3424C109.246 13.4729 109.321 13.6425 109.321 13.8513C109.321 14.06 109.246 14.2329 109.096 14.3699C108.953 14.5069 108.767 14.5754 108.539 14.5754ZM107.912 20.1825V15.3289H109.165V20.1825H107.912Z" fill="#41E22E"/>
<path d="M112.801 20.2999C112.332 20.2999 111.907 20.1923 111.529 19.977C111.157 19.7617 110.86 19.4649 110.639 19.0865C110.423 18.7016 110.316 18.258 110.316 17.7557C110.316 17.2534 110.427 16.813 110.648 16.4346C110.87 16.0497 111.167 15.7497 111.539 15.5344C111.917 15.3191 112.341 15.2115 112.811 15.2115C113.274 15.2115 113.692 15.3191 114.064 15.5344C114.442 15.7497 114.739 16.0497 114.954 16.4346C115.176 16.813 115.287 17.2534 115.287 17.7557C115.287 18.258 115.176 18.7016 114.954 19.0865C114.739 19.4649 114.442 19.7617 114.064 19.977C113.685 20.1923 113.264 20.2999 112.801 20.2999ZM112.801 19.2137C113.127 19.2137 113.411 19.093 113.653 18.8516C113.894 18.6037 114.015 18.2384 114.015 17.7557C114.015 17.2729 113.894 16.9109 113.653 16.6695C113.411 16.4216 113.131 16.2976 112.811 16.2976C112.478 16.2976 112.191 16.4216 111.95 16.6695C111.715 16.9109 111.598 17.2729 111.598 17.7557C111.598 18.2384 111.715 18.6037 111.95 18.8516C112.191 19.093 112.475 19.2137 112.801 19.2137Z" fill="#41E22E"/>
<path d="M116.407 20.1825V15.3289H117.512L117.61 16.1509C117.76 15.8638 117.976 15.6355 118.256 15.4659C118.543 15.2963 118.879 15.2115 119.264 15.2115C119.864 15.2115 120.331 15.4006 120.663 15.779C120.996 16.1574 121.162 16.7119 121.162 17.4425V20.1825H119.91V17.56C119.91 17.1425 119.825 16.8228 119.655 16.601C119.486 16.3792 119.222 16.2683 118.863 16.2683C118.51 16.2683 118.22 16.3922 117.992 16.6401C117.77 16.888 117.659 17.2338 117.659 17.6774V20.1825H116.407Z" fill="#41E22E"/>
<path d="M124.917 20.1825V16.3759H124.251V15.3289H124.917V14.7613C124.917 14.1742 125.064 13.7567 125.357 13.5088C125.657 13.2609 126.062 13.1369 126.571 13.1369H127.109V14.2036H126.766C126.551 14.2036 126.398 14.246 126.306 14.3308C126.215 14.4156 126.169 14.5591 126.169 14.7613V15.3289H127.216V16.3759H126.169V20.1825H124.917Z" fill="#41E22E"/>
<path d="M130.346 20.2999C129.876 20.2999 129.452 20.1923 129.074 19.977C128.702 19.7617 128.405 19.4649 128.184 19.0865C127.968 18.7016 127.861 18.258 127.861 17.7557C127.861 17.2534 127.972 16.813 128.193 16.4346C128.415 16.0497 128.712 15.7497 129.084 15.5344C129.462 15.3191 129.886 15.2115 130.356 15.2115C130.819 15.2115 131.237 15.3191 131.609 15.5344C131.987 15.7497 132.284 16.0497 132.499 16.4346C132.721 16.813 132.832 17.2534 132.832 17.7557C132.832 18.258 132.721 18.7016 132.499 19.0865C132.284 19.4649 131.987 19.7617 131.609 19.977C131.23 20.1923 130.809 20.2999 130.346 20.2999ZM130.346 19.2137C130.672 19.2137 130.956 19.093 131.198 18.8516C131.439 18.6037 131.56 18.2384 131.56 17.7557C131.56 17.2729 131.439 16.9109 131.198 16.6695C130.956 16.4216 130.676 16.2976 130.356 16.2976C130.023 16.2976 129.736 16.4216 129.495 16.6695C129.26 16.9109 129.143 17.2729 129.143 17.7557C129.143 18.2384 129.26 18.6037 129.495 18.8516C129.736 19.093 130.02 19.2137 130.346 19.2137Z" fill="#41E22E"/>
<path d="M133.952 20.1825V15.3289H135.067L135.185 16.2389C135.361 15.9258 135.599 15.6779 135.899 15.4952C136.206 15.3061 136.564 15.2115 136.975 15.2115V16.5325H136.623C136.349 16.5325 136.104 16.5749 135.889 16.6597C135.674 16.7445 135.504 16.8913 135.38 17.1001C135.263 17.3088 135.204 17.5991 135.204 17.971V20.1825H133.952Z" fill="#41E22E"/>
<path d="M69.7411 33.1433C69.0497 33.1433 68.456 32.9965 67.9602 32.7029C67.4644 32.4028 67.0828 31.9886 66.8153 31.4602C66.5478 30.9252 66.4141 30.3088 66.4141 29.6107C66.4141 28.9127 66.5478 28.2962 66.8153 27.7613C67.0828 27.2263 67.4644 26.8088 67.9602 26.5088C68.456 26.2087 69.0497 26.0586 69.7411 26.0586C70.5631 26.0586 71.2351 26.2641 71.757 26.6751C72.2854 27.0796 72.6148 27.6504 72.7453 28.3876H71.3655C71.2807 28.0157 71.0981 27.7254 70.8176 27.5167C70.5436 27.3014 70.1782 27.1937 69.7216 27.1937C69.0888 27.1937 68.593 27.409 68.2342 27.8396C67.8754 28.2701 67.696 28.8605 67.696 29.6107C67.696 30.361 67.8754 30.9513 68.2342 31.3819C68.593 31.8059 69.0888 32.018 69.7216 32.018C70.1782 32.018 70.5436 31.9201 70.8176 31.7244C71.0981 31.5222 71.2807 31.2449 71.3655 30.8926H72.7453C72.6148 31.5972 72.2854 32.1484 71.757 32.5464C71.2351 32.9443 70.5631 33.1433 69.7411 33.1433Z" fill="#41E22E"/>
<path d="M76.1536 33.1433C75.6839 33.1433 75.2599 33.0356 74.8815 32.8204C74.5096 32.6051 74.2128 32.3083 73.991 31.9299C73.7757 31.545 73.6681 31.1014 73.6681 30.5991C73.6681 30.0967 73.779 29.6564 74.0008 29.278C74.2226 28.8931 74.5194 28.5931 74.8913 28.3778C75.2696 28.1625 75.6937 28.0548 76.1634 28.0548C76.6266 28.0548 77.0441 28.1625 77.4159 28.3778C77.7943 28.5931 78.0911 28.8931 78.3064 29.278C78.5282 29.6564 78.6391 30.0967 78.6391 30.5991C78.6391 31.1014 78.5282 31.545 78.3064 31.9299C78.0911 32.3083 77.7943 32.6051 77.4159 32.8204C77.0376 33.0356 76.6168 33.1433 76.1536 33.1433ZM76.1536 32.0571C76.4798 32.0571 76.7636 31.9364 77.0049 31.695C77.2463 31.4471 77.367 31.0818 77.367 30.5991C77.367 30.1163 77.2463 29.7543 77.0049 29.5129C76.7636 29.265 76.483 29.141 76.1634 29.141C75.8307 29.141 75.5436 29.265 75.3023 29.5129C75.0674 29.7543 74.95 30.1163 74.95 30.5991C74.95 31.0818 75.0674 31.4471 75.3023 31.695C75.5436 31.9364 75.8274 32.0571 76.1536 32.0571Z" fill="#41E22E"/>
<path d="M79.759 33.0259V28.1723H80.8647L80.9724 28.8279C81.129 28.5931 81.3344 28.4071 81.5889 28.2701C81.8498 28.1266 82.1499 28.0548 82.4891 28.0548C83.2393 28.0548 83.771 28.3452 84.0842 28.9258C84.2603 28.6583 84.4952 28.4463 84.7887 28.2897C85.0888 28.1331 85.415 28.0548 85.7673 28.0548C86.4 28.0548 86.8861 28.244 87.2253 28.6224C87.5645 29.0008 87.7341 29.5553 87.7341 30.2859V33.0259H86.4816V30.4034C86.4816 29.9858 86.4 29.6662 86.237 29.4444C86.0804 29.2226 85.8358 29.1117 85.5031 29.1117C85.1638 29.1117 84.8898 29.2356 84.6811 29.4835C84.4788 29.7314 84.3777 30.0772 84.3777 30.5208V33.0259H83.1252V30.4034C83.1252 29.9858 83.0436 29.6662 82.8805 29.4444C82.7175 29.2226 82.4663 29.1117 82.1271 29.1117C81.7944 29.1117 81.5236 29.2356 81.3149 29.4835C81.1126 29.7314 81.0115 30.0772 81.0115 30.5208V33.0259H79.759Z" fill="#41E22E"/>
<path d="M88.9233 35.1786V28.1723H90.0388L90.1758 28.867C90.3324 28.6518 90.5379 28.4626 90.7923 28.2995C91.0532 28.1364 91.3892 28.0548 91.8002 28.0548C92.2569 28.0548 92.6646 28.1658 93.0234 28.3876C93.3822 28.6094 93.666 28.9127 93.8747 29.2976C94.0835 29.6825 94.1879 30.1196 94.1879 30.6088C94.1879 31.0981 94.0835 31.5352 93.8747 31.9201C93.666 32.2985 93.3822 32.5986 93.0234 32.8204C92.6646 33.0356 92.2569 33.1433 91.8002 33.1433C91.4349 33.1433 91.1152 33.0748 90.8412 32.9378C90.5672 32.8008 90.3454 32.6083 90.1758 32.3604V35.1786H88.9233ZM91.536 32.0473C91.9339 32.0473 92.2634 31.9136 92.5243 31.6461C92.7853 31.3786 92.9157 31.0329 92.9157 30.6088C92.9157 30.1848 92.7853 29.8358 92.5243 29.5618C92.2634 29.2878 91.9339 29.1508 91.536 29.1508C91.1315 29.1508 90.7988 29.2878 90.5379 29.5618C90.2835 29.8293 90.1562 30.175 90.1562 30.5991C90.1562 31.0231 90.2835 31.3721 90.5379 31.6461C90.7988 31.9136 91.1315 32.0473 91.536 32.0473Z" fill="#41E22E"/>
<path d="M97.1269 33.1433C96.5202 33.1433 96.0505 32.9541 95.7178 32.5757C95.3916 32.1973 95.2285 31.6428 95.2285 30.9122V28.1723H96.4712V30.7948C96.4712 31.2123 96.556 31.5319 96.7256 31.7537C96.8953 31.9755 97.1627 32.0864 97.5281 32.0864C97.8738 32.0864 98.1576 31.9625 98.3794 31.7146C98.6077 31.4667 98.7219 31.121 98.7219 30.6773V28.1723H99.9744V33.0259H98.8687L98.7708 32.2039C98.6208 32.4909 98.4022 32.7192 98.1152 32.8889C97.8347 33.0585 97.5052 33.1433 97.1269 33.1433Z" fill="#41E22E"/>
<path d="M103.423 33.0259C102.914 33.0259 102.506 32.9019 102.2 32.654C101.893 32.4061 101.74 31.9658 101.74 31.333V29.2193H100.908V28.1723H101.74L101.886 26.8708H102.992V28.1723H104.303V29.2193H102.992V31.3428C102.992 31.5776 103.041 31.7407 103.139 31.832C103.243 31.9168 103.42 31.9592 103.667 31.9592H104.274V33.0259H103.423Z" fill="#41E22E"/>
<path d="M106.054 27.4188C105.826 27.4188 105.637 27.3503 105.487 27.2133C105.343 27.0763 105.271 26.9034 105.271 26.6947C105.271 26.4859 105.343 26.3163 105.487 26.1858C105.637 26.0488 105.826 25.9803 106.054 25.9803C106.282 25.9803 106.468 26.0488 106.612 26.1858C106.762 26.3163 106.837 26.4859 106.837 26.6947C106.837 26.9034 106.762 27.0763 106.612 27.2133C106.468 27.3503 106.282 27.4188 106.054 27.4188ZM105.428 33.0259V28.1723H106.68V33.0259H105.428Z" fill="#41E22E"/>
<path d="M107.988 33.0259V28.1723H109.093L109.191 28.9943C109.341 28.7072 109.557 28.4789 109.837 28.3093C110.124 28.1397 110.46 28.0548 110.845 28.0548C111.445 28.0548 111.912 28.244 112.244 28.6224C112.577 29.0008 112.743 29.5553 112.743 30.2859V33.0259H111.491V30.4034C111.491 29.9858 111.406 29.6662 111.236 29.4444C111.067 29.2226 110.803 29.1117 110.444 29.1117C110.092 29.1117 109.801 29.2356 109.573 29.4835C109.351 29.7314 109.24 30.0772 109.24 30.5208V33.0259H107.988Z" fill="#41E22E"/>
<path d="M115.996 31.5776C115.761 31.5776 115.543 31.5515 115.34 31.4993L114.978 31.8614C115.089 31.9201 115.239 31.969 115.429 32.0082C115.618 32.0473 115.924 32.0864 116.348 32.1256C116.994 32.1843 117.464 32.3376 117.757 32.5855C118.051 32.8334 118.198 33.1759 118.198 33.613C118.198 33.9 118.12 34.1707 117.963 34.4252C117.806 34.6861 117.565 34.8949 117.239 35.0514C116.913 35.2145 116.495 35.2961 115.986 35.2961C115.295 35.2961 114.737 35.1656 114.313 34.9047C113.889 34.6502 113.677 34.2653 113.677 33.75C113.677 33.3129 113.889 32.9345 114.313 32.6149C114.183 32.5561 114.068 32.4942 113.97 32.4289C113.879 32.3637 113.798 32.2952 113.726 32.2234V31.9984L114.577 31.0981C114.199 30.7654 114.01 30.3381 114.01 29.8162C114.01 29.49 114.088 29.1932 114.244 28.9258C114.408 28.6583 114.636 28.4463 114.929 28.2897C115.223 28.1331 115.579 28.0548 115.996 28.0548C116.27 28.0548 116.524 28.094 116.759 28.1723H118.599V28.9355L117.767 28.9943C117.898 29.2421 117.963 29.5161 117.963 29.8162C117.963 30.1424 117.885 30.4392 117.728 30.7067C117.572 30.9742 117.343 31.1862 117.043 31.3428C116.75 31.4993 116.401 31.5776 115.996 31.5776ZM115.996 30.6186C116.25 30.6186 116.459 30.5501 116.622 30.4131C116.792 30.2761 116.877 30.0804 116.877 29.826C116.877 29.5716 116.792 29.3759 116.622 29.2389C116.459 29.1019 116.25 29.0334 115.996 29.0334C115.729 29.0334 115.513 29.1019 115.35 29.2389C115.187 29.3759 115.106 29.5716 115.106 29.826C115.106 30.0804 115.187 30.2761 115.35 30.4131C115.513 30.5501 115.729 30.6186 115.996 30.6186ZM114.822 33.6228C114.822 33.8641 114.933 34.0435 115.155 34.161C115.383 34.2849 115.66 34.3469 115.986 34.3469C116.299 34.3469 116.554 34.2817 116.75 34.1512C116.945 34.0272 117.043 33.8576 117.043 33.6423C117.043 33.4662 116.978 33.3194 116.847 33.202C116.723 33.0846 116.472 33.0128 116.094 32.9867C115.826 32.9671 115.579 32.9378 115.35 32.8986C115.161 33.003 115.024 33.1172 114.939 33.2411C114.861 33.3651 114.822 33.4923 114.822 33.6228Z" fill="#41E22E"/>
<path d="M121.873 33.0259V26.176H123.361L125.543 30.5208L127.696 26.176H129.183V33.0259H127.931V28.2995L126.022 32.0473H125.034L123.126 28.2995V33.0259H121.873Z" fill="#41E22E"/>
<path d="M132.156 33.1433C131.739 33.1433 131.396 33.078 131.129 32.9476C130.861 32.8106 130.662 32.6312 130.532 32.4094C130.401 32.1876 130.336 31.9429 130.336 31.6755C130.336 31.2253 130.512 30.86 130.864 30.5795C131.217 30.299 131.745 30.1587 132.45 30.1587H133.683V30.0413C133.683 29.7086 133.588 29.464 133.399 29.3074C133.21 29.1508 132.975 29.0725 132.694 29.0725C132.44 29.0725 132.218 29.1345 132.029 29.2585C131.84 29.3759 131.722 29.552 131.677 29.7869H130.453C130.486 29.4346 130.603 29.128 130.806 28.867C131.014 28.6061 131.282 28.4071 131.608 28.2701C131.934 28.1266 132.3 28.0548 132.704 28.0548C133.396 28.0548 133.94 28.2277 134.338 28.5735C134.736 28.9192 134.935 29.4085 134.935 30.0413V33.0259H133.868L133.751 32.243C133.608 32.504 133.405 32.7192 133.144 32.8889C132.89 33.0585 132.561 33.1433 132.156 33.1433ZM132.44 32.1647C132.799 32.1647 133.076 32.0473 133.272 31.8125C133.474 31.5776 133.601 31.2873 133.653 30.9416H132.587C132.254 30.9416 132.016 31.0035 131.872 31.1275C131.729 31.2449 131.657 31.3917 131.657 31.5678C131.657 31.757 131.729 31.9038 131.872 32.0082C132.016 32.1125 132.205 32.1647 132.44 32.1647Z" fill="#41E22E"/>
<path d="M138.508 33.1433C138.012 33.1433 137.575 33.0356 137.197 32.8204C136.819 32.6051 136.519 32.305 136.297 31.9201C136.081 31.5352 135.974 31.0949 135.974 30.5991C135.974 30.1033 136.081 29.6629 136.297 29.278C136.519 28.8931 136.819 28.5931 137.197 28.3778C137.575 28.1625 138.012 28.0548 138.508 28.0548C139.128 28.0548 139.65 28.2179 140.074 28.5441C140.498 28.8638 140.769 29.3074 140.886 29.8749H139.565C139.5 29.6401 139.369 29.4574 139.174 29.327C138.984 29.19 138.759 29.1215 138.498 29.1215C138.153 29.1215 137.859 29.2519 137.618 29.5129C137.376 29.7738 137.256 30.1359 137.256 30.5991C137.256 31.0622 137.376 31.4243 137.618 31.6852C137.859 31.9462 138.153 32.0767 138.498 32.0767C138.759 32.0767 138.984 32.0114 139.174 31.881C139.369 31.7505 139.5 31.5646 139.565 31.3232H140.886C140.769 31.8712 140.498 32.3115 140.074 32.6442C139.65 32.9769 139.128 33.1433 138.508 33.1433Z" fill="#41E22E"/>
<path d="M141.998 33.0259V25.9803H143.25V28.916C143.413 28.6485 143.632 28.4397 143.906 28.2897C144.186 28.1331 144.506 28.0548 144.865 28.0548C145.465 28.0548 145.928 28.244 146.254 28.6224C146.587 29.0008 146.754 29.5553 146.754 30.2859V33.0259H145.511V30.4034C145.511 29.9858 145.426 29.6662 145.256 29.4444C145.093 29.2226 144.832 29.1117 144.474 29.1117C144.121 29.1117 143.828 29.2356 143.593 29.4835C143.365 29.7314 143.25 30.0772 143.25 30.5208V33.0259H141.998Z" fill="#41E22E"/>
<path d="M148.626 27.4188C148.398 27.4188 148.209 27.3503 148.059 27.2133C147.915 27.0763 147.844 26.9034 147.844 26.6947C147.844 26.4859 147.915 26.3163 148.059 26.1858C148.209 26.0488 148.398 25.9803 148.626 25.9803C148.855 25.9803 149.041 26.0488 149.184 26.1858C149.334 26.3163 149.409 26.4859 149.409 26.6947C149.409 26.9034 149.334 27.0763 149.184 27.2133C149.041 27.3503 148.855 27.4188 148.626 27.4188ZM148 33.0259V28.1723H149.253V33.0259H148Z" fill="#41E22E"/>
<path d="M150.56 33.0259V28.1723H151.666L151.764 28.9943C151.914 28.7072 152.129 28.4789 152.41 28.3093C152.697 28.1397 153.033 28.0548 153.417 28.0548C154.018 28.0548 154.484 28.244 154.817 28.6224C155.149 29.0008 155.316 29.5553 155.316 30.2859V33.0259H154.063V30.4034C154.063 29.9858 153.978 29.6662 153.809 29.4444C153.639 29.2226 153.375 29.1117 153.016 29.1117C152.664 29.1117 152.374 29.2356 152.145 29.4835C151.924 29.7314 151.813 30.0772 151.813 30.5208V33.0259H150.56Z" fill="#41E22E"/>
<path d="M158.872 33.1433C158.383 33.1433 157.949 33.0389 157.57 32.8301C157.192 32.6214 156.895 32.3278 156.68 31.9495C156.465 31.5711 156.357 31.134 156.357 30.6382C156.357 30.1359 156.461 29.689 156.67 29.2976C156.885 28.9062 157.179 28.6028 157.551 28.3876C157.929 28.1658 158.373 28.0548 158.882 28.0548C159.358 28.0548 159.779 28.1592 160.144 28.368C160.509 28.5767 160.793 28.8638 160.995 29.2291C161.204 29.5879 161.308 29.9891 161.308 30.4327C161.308 30.5045 161.305 30.5795 161.299 30.6578C161.299 30.7361 161.295 30.8176 161.289 30.9024H157.6C157.626 31.2808 157.756 31.5776 157.991 31.7929C158.232 32.0082 158.523 32.1158 158.862 32.1158C159.116 32.1158 159.328 32.0604 159.498 31.9495C159.674 31.832 159.805 31.682 159.889 31.4993H161.162C161.07 31.8059 160.917 32.0864 160.702 32.3409C160.493 32.5888 160.232 32.7845 159.919 32.928C159.612 33.0715 159.263 33.1433 158.872 33.1433ZM158.882 29.0725C158.575 29.0725 158.304 29.1606 158.069 29.3367C157.835 29.5064 157.685 29.7673 157.619 30.1196H160.036C160.017 29.7999 159.899 29.5455 159.684 29.3563C159.469 29.1671 159.201 29.0725 158.882 29.0725Z" fill="#41E22E"/>
<path d="M162.362 33.0259V28.1723H163.477L163.595 29.0823C163.771 28.7692 164.009 28.5213 164.309 28.3386C164.616 28.1494 164.975 28.0548 165.386 28.0548V29.3759H165.033C164.759 29.3759 164.515 29.4183 164.299 29.5031C164.084 29.5879 163.914 29.7347 163.791 29.9434C163.673 30.1522 163.614 30.4425 163.614 30.8143V33.0259H162.362Z" fill="#41E22E"/>
<path d="M166.848 35.1786L167.974 32.7029H167.68L165.791 28.1723H167.152L168.512 31.5874L169.931 28.1723H171.262L168.179 35.1786H166.848Z" fill="#41E22E"/>
<path d="M68.0654 48.3156L66.1352 43.1782H66.8031L68.425 47.6624L70.0616 43.1782H70.7148L68.7846 48.3156H68.0654Z" fill="#41E22E"/>
<path d="M71.4191 48.3156V43.1782H72.0356V48.3156H71.4191Z" fill="#41E22E"/>
<path d="M74.3285 48.3156V43.6846H72.7946V43.1782H76.4789V43.6846H74.945V48.3156H74.3285Z" fill="#41E22E"/>
<path d="M80.8105 48.4037C80.4338 48.4037 80.106 48.3352 79.8271 48.1982C79.5482 48.0612 79.3329 47.8704 79.1812 47.6257C79.0296 47.3811 78.9537 47.0973 78.9537 46.7744H79.5996C79.5996 46.975 79.646 47.1609 79.739 47.3322C79.832 47.4985 79.9665 47.6331 80.1427 47.7358C80.3237 47.8337 80.5463 47.8826 80.8105 47.8826C81.1579 47.8826 81.427 47.7994 81.6178 47.6331C81.8086 47.4667 81.904 47.2588 81.904 47.0092C81.904 46.8037 81.86 46.6398 81.7719 46.5175C81.6839 46.3903 81.564 46.2876 81.4123 46.2093C81.2655 46.131 81.0943 46.0625 80.8986 46.0038C80.7078 45.9451 80.5072 45.879 80.2968 45.8056C79.9005 45.6686 79.6069 45.4998 79.4161 45.2992C79.2253 45.0937 79.1299 44.8271 79.1299 44.4993C79.125 44.2253 79.1886 43.9831 79.3207 43.7727C79.4528 43.5574 79.6387 43.3911 79.8784 43.2737C80.1231 43.1513 80.4118 43.0902 80.7445 43.0902C81.0723 43.0902 81.356 43.1513 81.5958 43.2737C81.8404 43.396 82.0288 43.5648 82.1609 43.78C82.2979 43.9953 82.3688 44.24 82.3737 44.514H81.7279C81.7279 44.3721 81.6912 44.2326 81.6178 44.0956C81.5444 43.9537 81.4319 43.8388 81.2802 43.7507C81.1334 43.6626 80.9475 43.6186 80.7224 43.6186C80.4436 43.6137 80.2136 43.6846 80.0326 43.8314C79.8564 43.9782 79.7684 44.1813 79.7684 44.4406C79.7684 44.6607 79.8295 44.8295 79.9518 44.947C80.079 45.0644 80.2552 45.1622 80.4803 45.2405C80.7053 45.3139 80.9646 45.3995 81.2582 45.4974C81.5028 45.5855 81.723 45.6882 81.9187 45.8056C82.1144 45.9231 82.2661 46.0747 82.3737 46.2607C82.4863 46.4466 82.5425 46.6839 82.5425 46.9725C82.5425 47.2172 82.4789 47.4496 82.3517 47.6698C82.2245 47.885 82.0312 48.0612 81.7719 48.1982C81.5175 48.3352 81.197 48.4037 80.8105 48.4037Z" fill="#41E22E"/>
<path d="M84.8186 48.3156C84.4859 48.3156 84.2241 48.2349 84.0333 48.0734C83.8425 47.912 83.7471 47.6208 83.7471 47.2001V45.1965H83.1159V44.6754H83.7471L83.8278 43.8021H84.3635V44.6754H85.4351V45.1965H84.3635V47.2001C84.3635 47.43 84.41 47.5866 84.503 47.6698C84.5959 47.748 84.7599 47.7872 84.9947 47.7872H85.3763V48.3156H84.8186Z" fill="#41E22E"/>
<path d="M87.5466 48.4037C87.1161 48.4037 86.7736 48.274 86.5192 48.0147C86.2647 47.7505 86.1375 47.3468 86.1375 46.8037V44.6754H86.754V46.7377C86.754 47.4961 87.0647 47.8753 87.6861 47.8753C88.0041 47.8753 88.2659 47.7627 88.4714 47.5377C88.6817 47.3077 88.7869 46.9823 88.7869 46.5616V44.6754H89.4034V48.3156H88.8456L88.8016 47.6624C88.6891 47.8924 88.5203 48.0734 88.2952 48.2055C88.0751 48.3376 87.8255 48.4037 87.5466 48.4037Z" fill="#41E22E"/>
<path d="M92.0695 48.4037C91.7074 48.4037 91.3894 48.3205 91.1154 48.1541C90.8463 47.9878 90.6359 47.7603 90.4842 47.4716C90.3374 47.1829 90.264 46.8551 90.264 46.4882C90.264 46.1212 90.3399 45.7958 90.4916 45.5121C90.6432 45.2234 90.8536 44.9983 91.1227 44.8369C91.3918 44.6705 91.7098 44.5873 92.0768 44.5873C92.3753 44.5873 92.6395 44.6485 92.8694 44.7708C93.0994 44.8931 93.278 45.0644 93.4052 45.2846V43.0315H94.0217V48.3156H93.4639L93.4052 47.7138C93.2878 47.8899 93.1189 48.0489 92.8988 48.1908C92.6786 48.3327 92.4022 48.4037 92.0695 48.4037ZM92.1355 47.8679C92.3801 47.8679 92.5954 47.8116 92.7813 47.6991C92.9722 47.5817 93.1189 47.4202 93.2217 47.2147C93.3293 47.0092 93.3831 46.7695 93.3831 46.4955C93.3831 46.2215 93.3293 45.9818 93.2217 45.7763C93.1189 45.5708 92.9722 45.4118 92.7813 45.2992C92.5954 45.1818 92.3801 45.1231 92.1355 45.1231C91.8958 45.1231 91.6805 45.1818 91.4897 45.2992C91.3037 45.4118 91.157 45.5708 91.0493 45.7763C90.9466 45.9818 90.8952 46.2215 90.8952 46.4955C90.8952 46.7695 90.9466 47.0092 91.0493 47.2147C91.157 47.4202 91.3037 47.5817 91.4897 47.6991C91.6805 47.8116 91.8958 47.8679 92.1355 47.8679Z" fill="#41E22E"/>
<path d="M96.6632 48.4037C96.3158 48.4037 96.0076 48.3254 95.7385 48.1688C95.4694 48.0074 95.2565 47.7847 95.1 47.501C94.9483 47.2172 94.8725 46.882 94.8725 46.4955C94.8725 46.1139 94.9483 45.7812 95.1 45.4974C95.2517 45.2087 95.462 44.9861 95.7311 44.8295C96.0051 44.6681 96.3207 44.5873 96.6779 44.5873C97.0302 44.5873 97.3335 44.6681 97.5879 44.8295C97.8473 44.9861 98.0454 45.194 98.1824 45.4534C98.3194 45.7127 98.3879 45.9916 98.3879 46.29C98.3879 46.3438 98.3854 46.3977 98.3805 46.4515C98.3805 46.5053 98.3805 46.5665 98.3805 46.6349H95.4816C95.4963 46.9138 95.5599 47.1462 95.6724 47.3322C95.7899 47.5132 95.9342 47.6502 96.1054 47.7432C96.2816 47.8361 96.4675 47.8826 96.6632 47.8826C96.9176 47.8826 97.1305 47.8239 97.3017 47.7065C97.473 47.589 97.5977 47.43 97.676 47.2294H98.2851C98.1873 47.567 97.9989 47.8483 97.72 48.0734C97.446 48.2936 97.0938 48.4037 96.6632 48.4037ZM96.6632 45.1084C96.3696 45.1084 96.1079 45.1989 95.8779 45.38C95.6529 45.5561 95.5232 45.8154 95.489 46.1579H97.7787C97.7641 45.8301 97.6515 45.5732 97.4411 45.3873C97.2308 45.2014 96.9714 45.1084 96.6632 45.1084Z" fill="#41E22E"/>
<path d="M99.205 48.3156V44.6754H99.7628L99.7995 45.3286C99.9169 45.0986 100.086 44.9176 100.306 44.7855C100.526 44.6534 100.776 44.5873 101.054 44.5873C101.485 44.5873 101.827 44.7195 102.082 44.9837C102.341 45.243 102.471 45.6442 102.471 46.1873V48.3156H101.854V46.2533C101.854 45.4949 101.541 45.1158 100.915 45.1158C100.602 45.1158 100.34 45.2307 100.13 45.4607C99.9242 45.6858 99.8215 46.0087 99.8215 46.4295V48.3156H99.205Z" fill="#41E22E"/>
<path d="M104.843 48.3156C104.511 48.3156 104.249 48.2349 104.058 48.0734C103.867 47.912 103.772 47.6208 103.772 47.2001V45.1965H103.141V44.6754H103.772L103.853 43.8021H104.388V44.6754H105.46V45.1965H104.388V47.2001C104.388 47.43 104.435 47.5866 104.528 47.6698C104.621 47.748 104.785 47.7872 105.019 47.7872H105.401V48.3156H104.843Z" fill="#41E22E"/>
<path d="M110.475 48.4037C109.971 48.4037 109.536 48.2936 109.169 48.0734C108.807 47.8483 108.525 47.5377 108.325 47.1413C108.124 46.7401 108.024 46.2753 108.024 45.7469C108.024 45.2234 108.124 44.7635 108.325 44.3672C108.525 43.966 108.807 43.6528 109.169 43.4278C109.536 43.2027 109.971 43.0902 110.475 43.0902C111.062 43.0902 111.539 43.2321 111.906 43.5158C112.278 43.7947 112.515 44.1861 112.618 44.6901H111.936C111.857 44.3721 111.696 44.1176 111.451 43.9268C111.211 43.7311 110.886 43.6333 110.475 43.6333C110.108 43.6333 109.788 43.7189 109.514 43.8901C109.24 44.0565 109.027 44.2987 108.875 44.6167C108.728 44.9298 108.655 45.3066 108.655 45.7469C108.655 46.1873 108.728 46.5665 108.875 46.8845C109.027 47.1976 109.24 47.4398 109.514 47.611C109.788 47.7774 110.108 47.8606 110.475 47.8606C110.886 47.8606 111.211 47.7676 111.451 47.5817C111.696 47.3909 111.857 47.1389 111.936 46.8258H112.618C112.515 47.3199 112.278 47.7065 111.906 47.9853C111.539 48.2642 111.062 48.4037 110.475 48.4037Z" fill="#41E22E"/>
<path d="M113.467 48.3156V43.0315H114.084V45.2992C114.206 45.0742 114.38 44.9005 114.605 44.7782C114.83 44.651 115.075 44.5873 115.339 44.5873C115.76 44.5873 116.097 44.7195 116.352 44.9837C116.606 45.243 116.733 45.6442 116.733 46.1873V48.3156H116.124V46.2533C116.124 45.4949 115.818 45.1158 115.207 45.1158C114.889 45.1158 114.622 45.2307 114.407 45.4607C114.192 45.6858 114.084 46.0087 114.084 46.4295V48.3156H113.467Z" fill="#41E22E"/>
<path d="M118.878 48.4037C118.575 48.4037 118.323 48.3523 118.122 48.2495C117.922 48.1468 117.773 48.0098 117.675 47.8386C117.577 47.6673 117.528 47.4814 117.528 47.2808C117.528 46.9089 117.67 46.6227 117.954 46.4221C118.237 46.2215 118.624 46.1212 119.113 46.1212H120.097V46.0772C120.097 45.7592 120.013 45.5194 119.847 45.358C119.681 45.1916 119.458 45.1084 119.179 45.1084C118.939 45.1084 118.732 45.1696 118.555 45.2919C118.384 45.4093 118.277 45.583 118.232 45.813H117.601C117.626 45.5488 117.714 45.3261 117.866 45.1451C118.022 44.9641 118.215 44.8271 118.445 44.7341C118.675 44.6363 118.92 44.5873 119.179 44.5873C119.688 44.5873 120.07 44.7243 120.324 44.9983C120.583 45.2674 120.713 45.627 120.713 46.0772V48.3156H120.163L120.126 47.6624C120.023 47.8679 119.872 48.0441 119.671 48.1908C119.475 48.3327 119.211 48.4037 118.878 48.4037ZM118.974 47.8826C119.209 47.8826 119.409 47.8214 119.576 47.6991C119.747 47.5768 119.876 47.4178 119.964 47.2221C120.053 47.0264 120.097 46.8209 120.097 46.6056V46.5983H119.165C118.802 46.5983 118.546 46.6619 118.394 46.7891C118.247 46.9114 118.174 47.0655 118.174 47.2514C118.174 47.4422 118.242 47.5964 118.379 47.7138C118.521 47.8263 118.719 47.8826 118.974 47.8826Z" fill="#41E22E"/>
<path d="M121.638 49.9302V44.6754H122.196L122.254 45.2772C122.372 45.1011 122.538 44.9421 122.753 44.8002C122.974 44.6583 123.253 44.5873 123.59 44.5873C123.952 44.5873 124.268 44.6705 124.537 44.8369C124.806 45.0032 125.014 45.2307 125.161 45.5194C125.312 45.8081 125.388 46.1359 125.388 46.5028C125.388 46.8698 125.312 47.1976 125.161 47.4863C125.014 47.7701 124.804 47.9951 124.53 48.1615C124.26 48.3229 123.945 48.4037 123.583 48.4037C123.284 48.4037 123.018 48.3425 122.783 48.2202C122.553 48.0979 122.377 47.9266 122.254 47.7065V49.9302H121.638ZM123.517 47.8679C123.761 47.8679 123.977 47.8116 124.163 47.6991C124.348 47.5817 124.495 47.4202 124.603 47.2147C124.711 47.0092 124.764 46.7695 124.764 46.4955C124.764 46.2215 124.711 45.9818 124.603 45.7763C124.495 45.5708 124.348 45.4118 124.163 45.2992C123.977 45.1818 123.761 45.1231 123.517 45.1231C123.272 45.1231 123.057 45.1818 122.871 45.2992C122.685 45.4118 122.538 45.5708 122.431 45.7763C122.323 45.9818 122.269 46.2215 122.269 46.4955C122.269 46.7695 122.323 47.0092 122.431 47.2147C122.538 47.4202 122.685 47.5817 122.871 47.6991C123.057 47.8116 123.272 47.8679 123.517 47.8679Z" fill="#41E22E"/>
<path d="M127.541 48.3156C127.209 48.3156 126.947 48.2349 126.756 48.0734C126.565 47.912 126.47 47.6208 126.47 47.2001V45.1965H125.839V44.6754H126.47L126.551 43.8021H127.086V44.6754H128.158V45.1965H127.086V47.2001C127.086 47.43 127.133 47.5866 127.226 47.6698C127.319 47.748 127.483 47.7872 127.718 47.7872H128.099V48.3156H127.541Z" fill="#41E22E"/>
<path d="M130.477 48.4037C130.13 48.4037 129.822 48.3254 129.553 48.1688C129.284 48.0074 129.071 47.7847 128.914 47.501C128.763 47.2172 128.687 46.882 128.687 46.4955C128.687 46.1139 128.763 45.7812 128.914 45.4974C129.066 45.2087 129.276 44.9861 129.545 44.8295C129.819 44.6681 130.135 44.5873 130.492 44.5873C130.844 44.5873 131.148 44.6681 131.402 44.8295C131.661 44.9861 131.86 45.194 131.997 45.4534C132.134 45.7127 132.202 45.9916 132.202 46.29C132.202 46.3438 132.2 46.3977 132.195 46.4515C132.195 46.5053 132.195 46.5665 132.195 46.6349H129.296C129.311 46.9138 129.374 47.1462 129.487 47.3322C129.604 47.5132 129.748 47.6502 129.92 47.7432C130.096 47.8361 130.282 47.8826 130.477 47.8826C130.732 47.8826 130.945 47.8239 131.116 47.7065C131.287 47.589 131.412 47.43 131.49 47.2294H132.099C132.002 47.567 131.813 47.8483 131.534 48.0734C131.26 48.2936 130.908 48.4037 130.477 48.4037ZM130.477 45.1084C130.184 45.1084 129.922 45.1989 129.692 45.38C129.467 45.5561 129.337 45.8154 129.303 46.1579H131.593C131.578 45.8301 131.466 45.5732 131.255 45.3873C131.045 45.2014 130.786 45.1084 130.477 45.1084Z" fill="#41E22E"/>
<path d="M133.019 48.3156V44.6754H133.577L133.628 45.3726C133.741 45.1329 133.912 44.9421 134.142 44.8002C134.372 44.6583 134.656 44.5873 134.993 44.5873V45.2332H134.825C134.609 45.2332 134.411 45.2723 134.23 45.3506C134.049 45.424 133.905 45.5512 133.797 45.7322C133.69 45.9133 133.636 46.1628 133.636 46.4808V48.3156H133.019Z" fill="#41E22E"/>
</g>
<defs>
<clipPath id="clip0_44_83">
<rect width="171.262" height="61.087" fill="white"/>
</clipPath>
</defs>
</svg>
